<?xml version="1.0" encoding="utf-8"?>
<!-- Generator: Adobe Illustrator 22.1.0, SVG Export Plug-In . SVG Version: 6.00 Build 0)  -->
<svg version="1.1" id="Layer_1" xmlns="http://www.w3.org/2000/svg" xmlns:xlink="http://www.w3.org/1999/xlink" x="0px" y="0px"
	 viewBox="0 0 300 300" style="enable-background:new 0 0 300 300;" xml:space="preserve">
<style type="text/css">
	.st0{fill:#E7475E;}
	.st1{fill:#322153;}
	.st2{fill:#DFE1DF;}
	.st3{opacity:0.2;fill:#FFFFFF;enable-background:new    ;}
	.st4{opacity:0.1;enable-background:new    ;}
	.st5{fill:#FAFAFA;}
	.st6{fill:url(#SVGID_1_);}
</style>
<g id="chat" transform="translate(0 -32)">
	<path id="Path_339" class="st0" d="M-175.9,15.9h-41.6c-1.3,0-2.3,1-2.3,2.3v11.5h25.4c1.3,0,2.3,1,2.3,2.3v16.2h4.6l9.2,9.2v-9.2
		h2.3c1.3,0,2.3-1,2.3-2.3V18.2C-173.6,16.9-174.6,15.9-175.9,15.9z"/>
	<g id="Group_153" transform="translate(0 32)">
		<path id="Path_340" class="st1" d="M-235.9,26.6h1.2v8.1c0,0.5,0.2,0.9,0.7,1c0.1,0.1,0.3,0.1,0.5,0.1c0.3,0,0.6-0.1,0.8-0.3
			l8.9-8.9h29.5c1.9,0,3.4-1.5,3.5-3.3v-0.1V12.8h3l8.9,8.9c0.2,0.2,0.5,0.4,0.8,0.3c0.2,0,0.3,0,0.5-0.1c0.4-0.2,0.7-0.6,0.7-1
			v-8.1h1.2c1.9,0,3.4-1.5,3.5-3.3V9.3v-27.7c0-1.9-1.5-3.4-3.3-3.5h-0.1h-41.9c-1.9,0-3.4,1.5-3.5,3.3v0.1v10.4h-15
			c-1.9,0-3.4,1.5-3.5,3.3v0.1V23c0,1.9,1.5,3.4,3.3,3.5C-235.9,26.6-235.9,26.6-235.9,26.6z M-218.6-18.4c0-0.6,0.4-1.1,1-1.2h0.1
			h41.5c0.6,0,1.1,0.4,1.2,1v0.1V9.4c0,0.6-0.4,1.1-1,1.2h-0.1h-2.3c-0.6,0-1.1,0.4-1.2,1v0.1v6.5l-7.3-7.3
			c-0.2-0.3-0.5-0.4-0.8-0.4h-3.5v-15c0-1.9-1.5-3.4-3.3-3.5h-0.1h-24.2V-18.4z M-237.1-4.6c0-0.6,0.4-1.1,1-1.2h0.1h41.5
			c0.6,0,1.1,0.4,1.2,1v0.1V23c0,0.6-0.4,1.1-1,1.2h-0.1h-30c-0.3,0-0.6,0.1-0.8,0.3l-7.3,7.3v-6.5c0-0.6-0.4-1.1-1-1.2h-0.1h-2.3
			c-0.6,0-1.1-0.4-1.2-1V23V-4.6z"/>
		<path id="Path_341" class="st1" d="M-228.9,3.5h18.5c0.6,0,1.2-0.5,1.2-1.2c0-0.6-0.5-1.2-1.2-1.2l0,0h-18.5
			c-0.6,0-1.2,0.5-1.2,1.2S-229.6,3.5-228.9,3.5L-228.9,3.5z"/>
		<path id="Path_342" class="st1" d="M-205.9,3.5h4.6c0.6,0,1.2-0.5,1.2-1.2c0-0.6-0.5-1.2-1.2-1.2l0,0h-4.6c-0.6,0-1.2,0.5-1.2,1.2
			S-206.6,3.5-205.9,3.5L-205.9,3.5z"/>
		<path id="Path_343" class="st1" d="M-228.9,8.1h9.2c0.6,0,1.2-0.5,1.2-1.2c0-0.6-0.5-1.2-1.2-1.2l0,0h-9.2c-0.6,0-1.2,0.5-1.2,1.2
			S-229.6,8.1-228.9,8.1L-228.9,8.1z"/>
		<path id="Path_344" class="st1" d="M-201.2,5.8h-13.8c-0.6,0-1.2,0.5-1.2,1.2c0,0.6,0.5,1.2,1.2,1.2l0,0h13.8
			c0.6,0,1.2-0.5,1.2-1.2C-200.1,6.3-200.6,5.8-201.2,5.8L-201.2,5.8z"/>
		<path id="Path_345" class="st1" d="M-228.9,12.8h27.7c0.6,0,1.2-0.5,1.2-1.2c0-0.6-0.5-1.2-1.2-1.2l0,0h-27.7
			c-0.6,0-1.2,0.5-1.2,1.2C-230.1,12.2-229.6,12.8-228.9,12.8z"/>
		<path id="Path_346" class="st1" d="M-228.9,17.4h4.6c0.6,0,1.2-0.5,1.2-1.2c0-0.6-0.5-1.2-1.2-1.2h-4.6c-0.6,0-1.2,0.5-1.2,1.2
			C-230.1,16.9-229.6,17.4-228.9,17.4z"/>
		<path id="Path_347" class="st1" d="M-201.2,15h-18.5c-0.6,0-1.2,0.5-1.2,1.2c0,0.6,0.5,1.2,1.2,1.2h18.5c0.6,0,1.2-0.5,1.2-1.2
			C-200.1,15.6-200.6,15-201.2,15z"/>
		<path id="Path_348" class="st1" d="M-190.9-11.5c0-0.6-0.4-1.1-1-1.2h-0.1h-18.5c-0.6,0-1.2,0.5-1.2,1.2c0,0.7,0.5,1.2,1.2,1.2
			l0,0h18.5c0.6,0,1.1-0.4,1.2-1C-190.9-11.4-190.9-11.5-190.9-11.5z"/>
		<path id="Path_349" class="st1" d="M-187.4-10.4h4.6c0.6,0,1.2-0.5,1.2-1.2c0-0.6-0.5-1.2-1.2-1.2h-4.6c-0.6,0-1.2,0.5-1.2,1.2
			C-188.6-10.9-188.1-10.4-187.4-10.4L-187.4-10.4z"/>
		<path id="Path_350" class="st1" d="M-187.4-5.7h4.6c0.6,0,1.2-0.5,1.2-1.2c0-0.6-0.5-1.2-1.2-1.2h-4.6c-0.6,0-1.2,0.5-1.2,1.2
			C-188.6-6.3-188.1-5.7-187.4-5.7L-187.4-5.7z"/>
		<path id="Path_351" class="st1" d="M-187.4-1.1h4.6c0.6,0,1.2-0.5,1.2-1.2c0-0.6-0.5-1.2-1.2-1.2h-4.6c-0.6,0-1.2,0.5-1.2,1.2
			C-188.6-1.6-188.1-1.1-187.4-1.1L-187.4-1.1z"/>
		<path id="Path_352" class="st1" d="M-187.4,3.5h4.6c0.6,0,1.2-0.5,1.2-1.2c0-0.6-0.5-1.2-1.2-1.2h-4.6c-0.6,0-1.2,0.5-1.2,1.2
			C-188.6,3-188.1,3.5-187.4,3.5L-187.4,3.5z"/>
	</g>
</g>
<g>
	<path class="st1" d="M241.6,21.7H58.9c-3.3,0-5.7,2.4-5.7,5.2v21.3c0,2.8,2.4,5.2,5.2,5.2h75.3v21.8c-33.6,1.9-46.9,9.5-57.3,15.2
		l-1.9,0.9c-6.6,3.8-10.9,10.9-10.9,18.5v133.5c0,7.6,4.3,15.2,10.9,18.5l1.9,0.9c11.8,6.6,27.9,15.6,73.4,15.6s61.6-9,73.4-15.6
		l1.9-0.9c6.6-3.8,10.9-10.9,10.9-18.5V110.7c0-7.6-4.3-15.2-10.9-18.5l-1.4-0.9C213.2,85.6,200,78,166.3,76.1V53.9h75.3
		c2.8,0,5.2-2.4,5.2-5.2V26.9C246.8,24.1,244.5,21.7,241.6,21.7z"/>
	<path class="st2" d="M220.3,101.7c3.3,1.9,5.2,5.2,5.2,9.5v133.5c0,3.8-1.9,7.6-5.2,9.5l-1.9,0.9c-10.9,6.2-25.1,14.2-68.2,14.2
		s-57.3-8-68.2-14.2l-1.9-1.4c-3.3-1.9-5.2-5.2-5.2-9.5V110.7c0-3.8,1.9-7.6,5.2-9.5l1.9-0.9c10.9-6.2,25.1-14.2,68.2-14.2
		s57.3,8,68.2,14.2L220.3,101.7z"/>
	<path class="st3" d="M90.1,253.7c-2.8-1.9-4.3-5.2-4.3-9.5V110.7c0-3.8,1.9-7.6,4.3-9.5l1.9-0.9c9-6.2,21.8-14.2,58.2-14.2
		c-42.6,0-57.3,8-68.2,14.2l-1.9,0.9c-3.3,1.9-5.2,5.2-5.2,9.5v133.5c0,3.8,1.9,7.6,5.2,9.5l1.9,0.9c10.9,6.2,25.1,14.2,68.2,14.2
		c-36.5,0-49.2-8-58.2-14.2L90.1,253.7z"/>
	<path class="st4" d="M220.3,101.7l-1.9-0.9c-10.9-6.2-25.1-14.2-68.2-14.2c36.5,0,49.2,8,58.2,14.2l1.9,0.9
		c2.8,1.9,4.3,5.2,4.3,9.5v133.5c0,3.8-1.9,7.6-4.3,9.5l-1.9,0.9c-9,6.2-21.8,14.2-58.2,14.2c42.6,0,57.3-8,68.2-14.2l1.9-0.9
		c3.3-1.9,5.2-5.2,5.2-9.5v-134C225.5,106.9,223.2,103.1,220.3,101.7z"/>
	<path class="st1" d="M99.1,156.6c-1.9,0.9-2.8,2.8-2.8,4.7v75.3c0,1.9,0.9,3.8,2.8,4.7c1.4,0.5,12.8,6.2,50.7,6.2
		s49.7-5.2,50.7-6.2c1.9-0.9,2.8-2.8,2.8-4.7v-75.3c0-1.9-0.9-3.8-2.8-4.7c-1.4-0.5-12.8-6.2-50.7-6.2S100.5,156.2,99.1,156.6z"/>
	<path class="st5" d="M192.9,232.9c-5.2,1.4-18,3.8-43.1,3.8s-37.9-2.4-43.1-3.8v-67.7c5.2-1.4,18-3.8,43.1-3.8s37.9,2.4,43.1,3.8
		V232.9L192.9,232.9z"/>
	<path class="st4" d="M150.2,161.4c18.9,0,28.4,2.4,32.2,3.8v67.7c-3.8,1.4-13.3,3.8-32.2,3.8l0,0c25.1,0,37.9-2.4,43.1-3.8v-67.7
		C187.6,163.7,175.3,161.4,150.2,161.4z"/>
	<path class="st3" d="M107.1,232.9c5.2,1.4,18,3.8,43.1,3.8c-18.9,0-28.4-2.4-32.2-3.8v-67.7c3.8-1.4,13.3-3.8,32.2-3.8
		c-25.1,0-37.9,2.4-43.1,3.8V232.9L107.1,232.9z"/>
	<path class="st0" d="M139.3,118.3c0,6.2,4.7,10.9,10.9,10.9s10.9-4.7,10.9-10.9c0-6.2-4.7-10.9-10.9-10.9
		C144.1,107.9,139.3,112.6,139.3,118.3z"/>
	<g>
		<path class="st2" d="M155.4,75.7c-1.9,0-3.3,0-5.2,0s-3.8,0-5.2,0V53.9h10.9L155.4,75.7L155.4,75.7z"/>
		<rect x="64.1" y="32.6" class="st2" width="171.9" height="10.9"/>
	</g>
	
		<linearGradient id="SVGID_1_" gradientUnits="userSpaceOnUse" x1="-771.1719" y1="845.7733" x2="-760.1198" y2="840.6198" gradientTransform="matrix(21.3333 0 0 -21.3333 16479.125 18124.0098)">
		<stop  offset="0" style="stop-color:#FFFFFF;stop-opacity:0.2"/>
		<stop  offset="1" style="stop-color:#FFFFFF;stop-opacity:0"/>
	</linearGradient>
	<path class="st6" d="M241.6,21.7H58.9c-3.3,0-5.7,2.4-5.7,5.2v21.3c0,2.8,2.4,5.2,5.2,5.2h75.3v21.8c-33.6,1.9-46.9,9.5-57.3,15.2
		l-1.9,0.9c-6.6,3.8-10.9,10.9-10.9,18.5v133.5c0,7.6,4.3,15.2,10.9,18.5l1.9,0.9c11.8,6.6,27.9,15.6,73.4,15.6s61.6-9,73.4-15.6
		l1.9-0.9c6.6-3.8,10.9-10.9,10.9-18.5V110.7c0-7.6-4.3-15.2-10.9-18.5l-1.4-0.9C213.2,85.6,200,78,166.3,76.1V53.9h75.3
		c2.8,0,5.2-2.4,5.2-5.2V26.9C246.8,24.1,244.5,21.7,241.6,21.7z"/>
</g>
</svg>
