<?xml version="1.0" encoding="utf-8"?>
<!-- Generator: Adobe Illustrator 22.1.0, SVG Export Plug-In . SVG Version: 6.00 Build 0)  -->
<svg version="1.1" id="Layer_1" xmlns="http://www.w3.org/2000/svg" xmlns:xlink="http://www.w3.org/1999/xlink" x="0px" y="0px"
	 viewBox="0 0 300 300" style="enable-background:new 0 0 300 300;" xml:space="preserve">
<style type="text/css">
	.st0{fill:#E7475E;}
	.st1{fill:#322153;}
</style>
<g id="idea" transform="translate(-76)">
	<path id="Path_317" class="st0" d="M-146-55.1c0-1.1-0.9-2-2-2h-6v-6c0-1.1-0.9-2-2-2h-4c-1.1,0-2,0.9-2,2v6h-6
		c-1.1-0.1-2,0.8-2.1,1.9c-0.1,1.1,0.8,2,1.9,2.1c0.1,0,0.1,0,0.2,0h4c-1.1-0.1-2,0.8-2.1,1.9c-0.1,1.1,0.8,2,1.9,2.1
		c0.1,0,0.1,0,0.2,0h2v4h8v-4h2c1.1,0.1,2-0.8,2.1-1.9s-0.8-2-1.9-2.1c-0.1,0-0.1,0-0.2,0h4C-146.9-53.1-146-54-146-55.1z"/>
	<g id="Group_150" transform="translate(76)">
		<path id="Path_318" class="st1" d="M-217.1-72.6c2.7-3.6,4.1-8,4.1-12.4c0-11.6-9.4-21-21-21s-21,9.4-21,21
			c0,4.5,1.4,8.8,4.1,12.4c0,0.1,0,0.1,0.1,0.1l7,10.4h-0.2c-1.7-0.1-3.1,1.2-3.2,2.8c-0.1,1.7,1.2,3.1,2.8,3.2c0.1,0,0.2,0,0.3,0
			h1.2c-0.6,1.5,0.2,3.2,1.7,3.8c0.4,0.1,0.7,0.2,1.1,0.2h1v3c0,0.5,0.4,1,0.9,1h0.1h8c0.5,0,1-0.4,1-0.9v-0.1v-3h1
			c1.6,0,3-1.2,3-2.9c0-0.4-0.1-0.8-0.2-1.1h1.2c1.7-0.1,2.9-1.5,2.8-3.2c-0.1-1.5-1.3-2.8-2.8-2.8h-0.1L-217.1-72.6L-217.1-72.6z
			 M-223-59.1c0,0.5-0.4,1-0.9,1h-0.1h-4c-0.6,0-1,0.4-1,1c0,0.6,0.4,1,1,1s1,0.4,1,1c0,0.6-0.4,1-1,1h-6c-0.6,0-1,0.4-1,1
			s0.4,1,1,1h3v2h-6v-3c0-0.5-0.4-1-0.9-1h-0.1h-2c-0.6,0-1-0.4-1-1c0-0.6,0.4-1,1-1h6c0.6,0,1-0.4,1-1c0-0.6-0.4-1-1-1h-10
			c-0.6,0-1-0.4-1-1c0-0.6,0.4-1,1-1h20c0.5,0,1,0.4,1,0.9C-223-59.1-223-59.1-223-59.1z M-232-68.1c0.5,0,1,0.4,1,0.9v0.1v5h-6v-5
			c0-0.5,0.4-1,0.9-1h0.1H-232z M-219-73.4l-7.5,11.4h-2.5v-5c0-1.6-1.3-3-2.9-3h-0.1h-1v-10.1c0-0.5,0.1-0.9,0.3-1.3l3.6-7.2
			c0.2-0.3,0.2-0.7,0-1c-0.2-0.2-0.6-0.4-0.9-0.4h-8c-0.6,0-1,0.4-1,1s0.4,1,1,1h6.4l-2.9,5.7c-0.3,0.7-0.5,1.4-0.5,2.2V-70h-1
			c-1.6,0-3,1.3-3,2.9v0.1v5h-2.5l-7.5-11.4c0-0.1,0-0.1-0.1-0.2c-2.5-3.3-3.9-7.3-3.9-11.4c0-10.5,8.5-19,19-19s19,8.5,19,19
			c0,4.1-1.3,8.1-3.8,11.4L-219-73.4z"/>
		<path id="Path_319" class="st1" d="M-234-102c-9.4,0-17,7.6-17,16.9l0,0c0,0.6,0.4,1,1,1s1-0.4,1-1c0-8.3,6.7-15,14.9-15l0,0
			c0.6,0,1-0.4,1-1S-233.4-102-234-102z"/>
	</g>
</g>
<g>
	<path class="st0" d="M195.3,100.6c-2.8,0-5.1,2.3-5.1,5.1s2.3,5.1,5.1,5.1s5.1-2.3,5.1-5.1C199.9,102.4,198,100.6,195.3,100.6z"/>
	<path class="st0" d="M104.7,190.6c-2.8,0-5.1,2.3-5.1,5.1c0,2.8,2.3,5.1,5.1,5.1s5.1-2.3,5.1-5.1
		C109.8,192.9,107.5,190.6,104.7,190.6z"/>
	<path class="st1" d="M271,53.9c-1.8-0.5-3.2,0-4.6,1.4l-20.8,20.8h-9.7L224.8,65V54.9l20.3-20.8c1.4-1.4,1.8-2.8,1.4-4.6
		c-0.5-1.8-1.8-3.2-3.2-3.7c-5.1-1.8-10.6-2.8-15.7-2.8c-16.2,0-30.9,7.4-40.2,20.8c-8.8,12.5-11.5,27.2-7.9,41.6l-36.5,36.5
		l-61-60.5v-12c0-1.8-0.9-3.2-2.3-4.2L44.7,24.4c-1.8-1.4-4.6-0.9-6,0.9L24.8,39.2c-1.8,1.4-2.3,3.7-0.9,6l21.2,35.1
		c0.9,1.4,2.3,2.3,4.2,2.3h12l61,61L85.3,180c-14.3-4.2-29.6-1.4-41.6,7.4c-12.9,9.2-20.8,24-20.8,40.2c0,5.5,0.9,10.6,2.8,15.7
		c0.5,1.8,1.8,2.8,3.7,3.2c1.8,0.5,3.2,0,4.6-1.4l20.8-20.8h9.7l11.1,11.1v9.7l-20.8,20.8c-1.4,1.4-1.8,2.8-1.4,4.6
		c0.5,1.8,1.8,3.2,3.2,3.7c5.1,1.8,10.6,2.8,15.7,2.8c16.2,0,30.9-7.4,40.2-20.8c8.8-12.5,11.5-27.2,7.9-42l29.1-29.1l6.9,7.4
		l-3.2,3.2c-1.8,1.8-1.8,5.1,0,6.9c1.8,1.8,5.1,1.8,6.9,0l2.8-2.8l62.8,68.3l0,0c11.5,11.5,30.5,11.5,42,0c11.5-11.5,11.5-30.5,0-42
		l0,0l-67.9-62.3l2.8-2.8c1.8-1.8,1.8-5.1,0-6.9s-5.1-1.8-6.9,0l-3.2,3.2l-7.4-6.9l29.6-29.6c4.2,0.9,8.3,1.8,12.9,1.8
		c27.2,0,49.4-22.2,49.4-49.4c0-5.5-0.9-10.6-2.8-15.7C273.8,55.8,272.4,54.4,271,53.9z M66.4,74.3c-0.9-0.9-2.3-1.4-3.7-1.4H51.6
		L34.1,43.3l8.8-8.8l29.6,17.5v11.1c0,1.4,0.5,2.8,1.4,3.7l62.3,62.3l-7.4,7.4L66.4,74.3z M192.9,170.8l68.3,62.8
		c7.9,7.9,7.9,20.3,0,28.2c-7.9,7.9-20.3,7.9-28.2,0l-62.8-68.3L192.9,170.8z M185.6,164.3L163.9,186l-6.9-7.4l21.2-21.2
		L185.6,164.3z M227.6,112.6c-4.2,0-8.8-0.9-12.5-1.8c-1.8-0.5-3.7,0-5.1,1.4c-24.9,24.9-78.5,78.5-98.4,98.4
		c-1.4,1.4-1.8,3.2-1.4,5.1c4.2,12.5,2.3,25.4-5.5,36c-7.4,10.6-19.4,16.6-32.3,16.6c-1.4,0-2.8,0-4.2-0.5L84,252.1
		c0.9-0.9,1.4-2.3,1.4-3.7v-13.9c0-1.4-0.5-2.8-1.4-3.7l-14.3-14.3c-0.9-0.9-2.3-1.4-3.7-1.4H52.1c-1.4,0-2.8,0.5-3.7,1.4
		l-15.7,15.7c0-1.4-0.5-2.8-0.5-4.2c0-12.9,6-24.5,16.6-32.3c10.6-7.4,23.6-9.7,36-5.5c1.8,0.5,3.7,0,5.1-1.4
		c0.5-0.5,97.9-97.9,98.4-98.4c1.4-1.4,1.8-3.2,1.4-5.1c-4.2-12.5-2.3-25.4,5.5-36c7.4-10.6,19.4-16.6,32.3-16.6
		c1.4,0,2.8,0,4.6,0.5L217,48.9c-0.9,0.9-1.4,2.3-1.4,3.7v13.9c0,1.4,0.5,2.3,1.4,3.2L230.8,84c0.9,0.9,2.3,1.4,3.7,1.4h13.9
		c1.4,0,2.8-0.5,3.7-1.4l15.7-15.7c0,1.4,0.5,2.8,0.5,4.2C267.3,95,249.3,112.6,227.6,112.6z"/>
	<path class="st0" d="M177.7,115.8l-62.3,62.3c-1.8,1.8-1.8,5.1,0,6.9c1.8,1.8,5.1,1.8,6.9,0l62.3-62.3c1.8-1.8,1.8-5.1,0-6.9
		C182.8,114,179.6,114,177.7,115.8z"/>
	<path class="st0" d="M240.1,247.9c1.8,1.8,5.1,1.8,6.9,0c1.8-1.8,1.8-5.1,0-6.9l-44.8-44.8c-1.8-1.8-5.1-1.8-6.9,0
		c-1.8,1.8-1.8,5.1,0,6.9L240.1,247.9z"/>
</g>
</svg>
