<?xml version="1.0" encoding="utf-8"?>
<!-- Generator: Adobe Illustrator 22.1.0, SVG Export Plug-In . SVG Version: 6.00 Build 0)  -->
<svg version="1.1" id="Layer_1" xmlns="http://www.w3.org/2000/svg" xmlns:xlink="http://www.w3.org/1999/xlink" x="0px" y="0px"
	 viewBox="0 0 971.7 764.2" style="enable-background:new 0 0 971.7 764.2;" xml:space="preserve">
<style type="text/css">
	.st0{fill:#535461;}
	.st1{fill:#E7475E;}
	.st2{fill:#DCDCDC;}
	.st3{fill:#E6E6E6;}
	.st4{fill:#822A3B;}
</style>
<g>
	<g>
		<rect x="298.3" y="147.1" class="st0" width="48.8" height="100"/>
	</g>
	<g>
		<polygon class="st1" points="764.8,310.2 485.9,90.5 206.9,310.2 		"/>
	</g>
	<g>
		<polygon class="st2" points="485.9,126.8 253.1,310.2 253.1,654.3 718.6,654.3 718.6,310.2 		"/>
	</g>
	<g>
		<polygon class="st3" points="718.6,654.3 718.6,310.2 485.9,126.8 485.9,654.3 		"/>
	</g>
	<g>
		<rect x="313.2" y="401.9" class="st0" width="136.9" height="252.4"/>
	</g>
	<g>
		<rect x="520.4" y="355.4" class="st0" width="138.1" height="209.5"/>
	</g>
	<g>
		<rect x="226.6" y="654.3" class="st1" width="518.6" height="28.6"/>
	</g>
	<g>
		<g>
			<polygon class="st1" points="203.7,716.2 193.2,716.2 193.2,705.7 202.8,705.7 202.8,706.7 203.7,706.7 			"/>
		</g>
		<g>
			<path class="st1" d="M202.8,695.1h-9.5v-10.6h9.5V695.1z M202.8,673.9h-9.5v-10.6h9.5V673.9z M202.8,652.6h-9.5V642h9.5V652.6z"
				/>
		</g>
		<g>
			<polygon class="st1" points="202.8,631.4 193.2,631.4 193.2,620.9 203.7,620.9 203.7,630.5 202.8,630.5 			"/>
		</g>
		<g>
			<polygon class="st1" points="229.3,630.5 218.8,630.5 218.8,620.9 219.7,620.9 219.7,620 229.3,620 			"/>
		</g>
		<g>
			<path class="st1" d="M229.3,609h-9.5v-11h9.5V609z M229.3,586.9h-9.5v-11h9.5V586.9z M229.3,564.9h-9.5v-11h9.5V564.9z
				 M229.3,542.8h-9.5v-11h9.5V542.8z M229.3,520.8h-9.5v-11h9.5V520.8z M229.3,498.8h-9.5v-11h9.5V498.8z M229.3,476.7h-9.5v-11
				h9.5V476.7z M229.3,454.7h-9.5v-11h9.5V454.7z M229.3,432.6h-9.5v-11h9.5V432.6z M229.3,410.6h-9.5v-11h9.5V410.6z M229.3,388.6
				h-9.5v-11h9.5V388.6z M229.3,366.5h-9.5v-11h9.5V366.5z"/>
		</g>
		<g>
			<polygon class="st1" points="229.3,344.5 219.7,344.5 219.7,343.5 218.8,343.5 218.8,334 229.3,334 			"/>
		</g>
		<g>
			<path class="st1" d="M206.1,343.5h-12.7V334h12.7V343.5z M180.8,343.5h-12.7V334h12.7V343.5z M155.5,343.5h-12.7V334h12.7V343.5z
				"/>
		</g>
		<g>
			<polygon class="st1" points="130.2,343.5 110.7,343.5 126,331.5 128,334 130.2,334 130.2,336.8 131.9,339 130.2,340.3 			"/>
		</g>
		<g>
			<path class="st1" d="M141,331.8l-5.9-7.5l9.1-7.2l5.9,7.5L141,331.8z M159.2,317.5l-5.9-7.5l9.1-7.1l5.9,7.5L159.2,317.5z
				 M177.3,303.2l-5.9-7.5l9.1-7.2l5.9,7.5L177.3,303.2z M195.5,288.8l-5.9-7.5l9.1-7.2l5.9,7.5L195.5,288.8z M213.7,274.5l-5.9-7.5
				l9.1-7.2l5.9,7.5L213.7,274.5z M231.9,260.2l-5.9-7.5l9.1-7.2l5.9,7.5L231.9,260.2z M250.1,245.9l-5.9-7.5l9.1-7.2l5.9,7.5
				L250.1,245.9z"/>
		</g>
		<g>
			<polygon class="st1" points="268.2,231.6 262.3,224.1 265,222 265,218.6 274.5,218.6 274.5,226.6 			"/>
		</g>
		<g>
			<path class="st1" d="M274.5,208.1H265v-10.5h9.5V208.1z M274.5,187.1H265v-10.5h9.5V187.1z M274.5,166.2H265v-10.5h9.5V166.2z
				 M274.5,145.2H265v-10.5h9.5V145.2z"/>
		</g>
		<g>
			<polygon class="st1" points="274.5,124.2 265,124.2 265,113.7 275.5,113.7 275.5,123.3 274.5,123.3 			"/>
		</g>
		<g>
			<path class="st1" d="M359.5,123.3H349v-9.5h10.5V123.3z M338.5,123.3H328v-9.5h10.5V123.3z M317.5,123.3H307v-9.5h10.5V123.3z
				 M296.5,123.3H286v-9.5h10.5V123.3z"/>
		</g>
		<g>
			<polygon class="st1" points="380.5,124.2 371,124.2 371,123.3 370,123.3 370,113.7 380.5,113.7 			"/>
		</g>
		<g>
			<polygon class="st1" points="371,150.6 371,135.1 375.3,135.1 377.3,133.6 378.5,135.1 380.5,135.1 380.5,137.6 383.2,141 			"/>
		</g>
		<g>
			<path class="st1" d="M392.3,133.8l-5.9-7.5l9.2-7.2l5.9,7.5L392.3,133.8z M410.7,119.3l-5.9-7.5l9.2-7.2l5.9,7.5L410.7,119.3z
				 M429.1,104.8l-5.9-7.5l9.2-7.2l5.9,7.5L429.1,104.8z M447.5,90.3l-5.9-7.5l9.2-7.2l5.9,7.5L447.5,90.3z M465.9,75.8l-5.9-7.5
				l9.2-7.2l5.9,7.5L465.9,75.8z"/>
		</g>
		<g>
			<polygon class="st1" points="487.4,61.4 485.9,60.1 484.3,61.4 478.4,53.9 485.9,48 493.3,53.9 			"/>
		</g>
		<g>
			<path class="st1" d="M830.8,331.8l-9-7.1l5.9-7.5l9,7.1L830.8,331.8z M812.7,317.6l-9-7.1l5.9-7.5l9,7.1L812.7,317.6z
				 M794.6,303.4l-9-7.1l5.9-7.5l9,7.1L794.6,303.4z M776.6,289.1l-9-7.1l5.9-7.5l9,7.1L776.6,289.1z M758.5,274.9l-9-7.1l5.9-7.5
				l9,7.1L758.5,274.9z M740.4,260.7l-9-7.1l5.9-7.5l9,7.1L740.4,260.7z M722.3,246.4l-9-7.1l5.9-7.5l9,7.1L722.3,246.4z
				 M704.3,232.2l-9-7.1l5.9-7.5l9,7.1L704.3,232.2z M686.2,217.9l-9-7.1l5.9-7.5l9.1,7.1L686.2,217.9z M668.1,203.7l-9-7.1l5.9-7.5
				l9.1,7.1L668.1,203.7z M650.1,189.5l-9.1-7.1l5.9-7.5l9,7.1L650.1,189.5z M632,175.3l-9-7.1l5.9-7.5l9,7.1L632,175.3z M613.9,161
				l-9-7.1l5.9-7.5l9,7.1L613.9,161z M595.8,146.8l-9-7.1l5.9-7.5l9,7.1L595.8,146.8z M577.8,132.5l-9-7.1l5.9-7.5l9,7.1
				L577.8,132.5z M559.7,118.3l-9-7.1l5.9-7.5l9,7.1L559.7,118.3z M541.6,104.1l-9-7.1l5.9-7.5l9,7.1L541.6,104.1z M523.5,89.8
				l-9-7.1l5.9-7.5l9,7.1L523.5,89.8z M505.5,75.6l-9-7.1l5.9-7.5l9,7.1L505.5,75.6z"/>
		</g>
		<g>
			<polygon class="st1" points="861,343.5 841.5,343.5 841.5,340.3 839.8,339 841.5,336.8 841.5,334 843.7,334 845.7,331.5 			"/>
		</g>
		<g>
			<path class="st1" d="M828.9,343.5h-12.6V334h12.6V343.5z M803.6,343.5h-12.6V334h12.6V343.5z M778.2,343.5h-12.6V334h12.6V343.5z
				"/>
		</g>
		<g>
			<polygon class="st1" points="752,344.5 742.4,344.5 742.4,334 752.9,334 752.9,343.5 752,343.5 			"/>
		</g>
		<g>
			<path class="st1" d="M752,609h-9.5v-11h9.5V609z M752,586.9h-9.5v-11h9.5V586.9z M752,564.9h-9.5v-11h9.5V564.9z M752,542.8h-9.5
				v-11h9.5V542.8z M752,520.8h-9.5v-11h9.5V520.8z M752,498.8h-9.5v-11h9.5V498.8z M752,476.7h-9.5v-11h9.5V476.7z M752,454.7h-9.5
				v-11h9.5V454.7z M752,432.6h-9.5v-11h9.5V432.6z M752,410.6h-9.5v-11h9.5V410.6z M752,388.6h-9.5v-11h9.5V388.6z M752,366.5h-9.5
				v-11h9.5V366.5z"/>
		</g>
		<g>
			<polygon class="st1" points="752.9,630.5 742.4,630.5 742.4,620 752,620 752,620.9 752.9,620.9 			"/>
		</g>
		<g>
			<polygon class="st1" points="778.5,631.4 768.9,631.4 768.9,630.5 768,630.5 768,620.9 778.5,620.9 			"/>
		</g>
		<g>
			<path class="st1" d="M778.5,695.1h-9.5v-10.6h9.5V695.1z M778.5,673.9h-9.5v-10.6h9.5V673.9z M778.5,652.6h-9.5V642h9.5V652.6z"
				/>
		</g>
		<g>
			<polygon class="st1" points="778.5,716.2 768,716.2 768,706.7 768.9,706.7 768.9,705.7 778.5,705.7 			"/>
		</g>
		<g>
			<path class="st1" d="M756.5,716.2H745v-9.5h11.5V716.2z M733.5,716.2h-11.5v-9.5h11.5V716.2z M710.4,716.2h-11.5v-9.5h11.5V716.2
				z M687.4,716.2h-11.5v-9.5h11.5V716.2z M664.4,716.2h-11.5v-9.5h11.5V716.2z M641.3,716.2h-11.5v-9.5h11.5V716.2z M618.3,716.2
				h-11.5v-9.5h11.5V716.2z M595.3,716.2h-11.5v-9.5h11.5V716.2z M572.2,716.2h-11.5v-9.5h11.5V716.2z M549.2,716.2h-11.5v-9.5h11.5
				V716.2z M526.2,716.2h-11.5v-9.5h11.5V716.2z M503.1,716.2h-11.5v-9.5h11.5V716.2z M480.1,716.2h-11.5v-9.5h11.5V716.2z
				 M457.1,716.2h-11.5v-9.5h11.5V716.2z M434,716.2h-11.5v-9.5H434V716.2z M411,716.2h-11.5v-9.5H411V716.2z M388,716.2h-11.5v-9.5
				H388V716.2z M364.9,716.2h-11.5v-9.5h11.5V716.2z M341.9,716.2h-11.5v-9.5h11.5V716.2z M318.9,716.2h-11.5v-9.5h11.5V716.2z
				 M295.8,716.2h-11.5v-9.5h11.5V716.2z M272.8,716.2h-11.5v-9.5h11.5V716.2z M249.8,716.2h-11.5v-9.5h11.5V716.2z M226.7,716.2
				h-11.5v-9.5h11.5V716.2z"/>
		</g>
	</g>
</g>
<path class="st1" d="M126.2,717c2-1.6,3.5-3.8,4.2-6.3c0.5-2.5-0.5-5.5-2.9-6.4c-2.7-1-5.6,0.8-7.8,2.7c-2.2,1.9-4.7,4-7.5,3.6
	c3-2.7,4.3-6.8,3.5-10.7c-0.1-0.8-0.5-1.6-1-2.2c-1.5-1.6-4.2-0.9-6,0.4c-5.7,4-7.3,11.7-7.3,18.7c-0.6-2.5-0.1-5.1-0.1-7.7
	c0-2.5-0.7-5.5-2.9-6.8c-1.3-0.7-2.9-1.1-4.4-1c-2.6-0.1-5.4,0.2-7.2,2c-2.2,2.3-1.6,6.2,0.3,8.8c1.9,2.5,4.8,4.2,7.4,5.9
	c2.1,1.3,3.9,3,5.3,5c0.2,0.3,0.3,0.6,0.4,0.9h16C119.9,722,123.2,719.7,126.2,717L126.2,717z M905.7,703.8c2-1.6,3.5-3.8,4.2-6.3
	c0.5-2.5-0.5-5.5-2.9-6.4c-2.7-1-5.6,0.8-7.8,2.7c-2.2,1.9-4.7,4-7.5,3.6c3-2.7,4.3-6.8,3.5-10.7c-0.1-0.8-0.5-1.6-1-2.2
	c-1.5-1.6-4.2-0.9-6,0.4c-5.7,4-7.3,11.7-7.3,18.7c-0.6-2.5-0.1-5.1-0.1-7.7s-0.7-5.5-2.9-6.8c-1.3-0.7-2.9-1.1-4.4-1
	c-2.6-0.1-5.4,0.2-7.2,2c-2.2,2.3-1.6,6.2,0.3,8.8c1.9,2.5,4.8,4.2,7.4,5.9c2.1,1.3,3.9,3,5.3,5c0.2,0.3,0.3,0.6,0.4,0.9h16
	C899.4,708.9,902.7,706.6,905.7,703.8L905.7,703.8z"/>
<g>
	<g>
		<polygon class="st2" points="74.9,156.1 16.9,156.1 16.9,145.6 64.4,145.6 64.4,118.7 74.9,118.7 		"/>
	</g>
	<g>
		<rect x="0.9" y="96.5" class="st2" width="13.5" height="108.7"/>
	</g>
	<g>
		<rect x="14.4" y="129.8" class="st2" width="5" height="42.2"/>
	</g>
	<g>
		<path class="st2" d="M80.1,150.9c0,5.8-4.7,10.4-10.4,10.4c-5.7,0-10.4-4.7-10.4-10.4c0-5.7,4.7-10.4,10.4-10.4
			C75.4,140.5,80.1,145.1,80.1,150.9z"/>
	</g>
	<g>
		<rect x="59.2" y="97.9" class="st2" width="20.8" height="29.8"/>
	</g>
	<g>
		<path class="st2" d="M177.1,117.1l-52.2,9.4L34.2,63.1l21.3-30.4c1.1-1.5-0.2-2.6,1.6-2.9c1.9-0.3,6.7,0.1,8.2,1.2l115.4,80.8
			L177.1,117.1z"/>
	</g>
	<g>
		<g>
			<polygon class="st2" points="143.7,123.2 153.7,108.8 57.2,41.2 39.3,66.6 124.9,126.5 			"/>
		</g>
		<g>
			<path class="st2" d="M125.4,129.4l-1.2,0.2l-1-0.7L37.7,69l-5.2,7.4c-1.1,1.5-1.5,3.4-1.2,5.3c0.3,1.9,1.4,3.5,2.9,4.6l85,59.5
				c3.2,2.2,7.6,1.5,9.9-1.7l12.3-17.5L125.4,129.4z"/>
		</g>
	</g>
	<g>
		<polygon class="st2" points="158.5,118.8 150.6,113.3 143.7,123.2 157.1,120.7 		"/>
	</g>
	<g>
		<polygon class="st2" points="141.3,126.6 134.1,136.8 142,142.3 154.7,124.1 		"/>
	</g>
</g>
<g>
	<g>
		<rect x="768.9" y="3.5" class="st2" width="122.1" height="6"/>
	</g>
	<g>
		<path class="st2" d="M877.2,46.7c0,0-19.7-6.5-47.4-6.5c-27.4,0-47.4,6.3-47.4,6.3L769,11.4H891L877.2,46.7z"/>
	</g>
	<g>
		<path class="st2" d="M829.8,40.2c-7,0-13.5,0.4-19.3,1V85c1.4,0.6,2.9,1.2,4.4,1.7V61.8h0c0,0,0,0,0,0c0-8.3,6.8-15.1,15.1-15.1
			c8.3,0,15.1,6.8,15.1,15.1c0,0,0,0,0,0h0v24.8c-4.8,1.6-9.9,2.5-15.2,2.5c0,0,0,0,0.1,0c5.3,0,10.5-0.9,15.3-2.5
			c1.4-0.5,2.8-1,4.2-1.6V41.3C843.6,40.7,837,40.2,829.8,40.2z"/>
	</g>
	<g>
		<path class="st2" d="M830,51.9c-5.5,0-9.9,4.4-9.9,9.9c0,5.5,4.4,9.9,9.9,9.9c5.5,0,9.9-4.4,9.9-9.9
			C839.9,56.3,835.5,51.9,830,51.9z M830,65.6c-2.1,0-3.8-1.7-3.8-3.8c0-2.1,1.7-3.8,3.8-3.8c2.1,0,3.8,1.7,3.8,3.8
			C833.8,63.9,832.1,65.6,830,65.6z"/>
	</g>
	<g>
		<path class="st2" d="M829.8,42.2c22.7,0,40.2,4.5,45.2,5.9c-2.2,15.4-12.3,28.7-26.6,35.1c-1.2,0.6-2.6,1.1-4,1.6
			c-4.7,1.6-9.6,2.4-14.6,2.4c-4.9,0-9.7-0.8-14.3-2.3c-1.3-0.4-2.7-1-4.3-1.7c-14.3-6.4-24.4-19.8-26.6-35.3
			C789.7,46.5,807,42.2,829.8,42.2L829.8,42.2L829.8,42.2z M829.9,40.2C829.8,40.2,829.8,40.2,829.9,40.2c-27.1,0-46.8,6.1-47.4,6.3
			c1.8,17.2,12.8,31.7,27.9,38.4c1.5,0.6,3,1.2,4.5,1.7c4.7,1.6,9.7,2.4,14.9,2.4c5.3,0,10.5-0.9,15.3-2.5c1.4-0.5,2.8-1,4.2-1.6
			c15.1-6.7,26-21.1,27.9-38.3l0,0C877.2,46.7,857.5,40.2,829.9,40.2L829.9,40.2z"/>
	</g>
</g>
<g>
	<g>
		<path class="st1" d="M773.8,684.6c3.7-1.4,7.8,0.6,9.1,4.3l3.7,10.2l-17.3,6.3l-3.7-10.2c-1.3-3.7,0.6-7.8,4.3-9.1L773.8,684.6
			L773.8,684.6z M772,679.6l-3.9,1.4c-6.5,2.4-9.8,9.5-7.5,16l5.5,15.2l27.4-10l-5.5-15.2C785.6,680.6,778.5,677.2,772,679.6
			L772,679.6z"/>
	</g>
	<g>
		<path class="st1" d="M810.6,725.4c0.4,1.2,0.4,2.6-0.2,3.8c-0.6,1.2-1.6,2.1-2.8,2.6l-33.3,12.1c-1.2,0.5-2.6,0.4-3.8-0.2
			c-1.2-0.6-2.1-1.6-2.6-2.8l-9.7-26.7c-0.9-2.6,0.4-5.4,3-6.4l33.3-12.1c1.2-0.4,2.6-0.4,3.8,0.2c1.2,0.6,2.1,1.6,2.6,2.8
			L810.6,725.4z"/>
	</g>
	<g>
		<path class="st4" d="M788,722.2c-0.6-1.1-1.1-2.2-1.8-3.4c-0.2-0.4-0.4-0.7-0.6-1.1c1.1-1.2,1.5-2.9,0.9-4.5
			c-0.8-2.3-3.3-3.4-5.5-2.6c-2.3,0.8-3.4,3.3-2.6,5.6c0.6,1.6,2,2.6,3.6,2.8c0.1,0.4,0.2,0.8,0.3,1.2c0.3,1.3,0.6,2.5,0.8,3.7
			c0.3,1.2,0.6,2.4,0.9,3.7c0.3,1.3,0.6,2.7,1,4.4c1.3-0.5,2.4-0.9,3.4-1.2c1-0.4,2-0.7,3.4-1.2c-0.8-1.5-1.4-2.8-2-4
			C789.2,724.4,788.6,723.3,788,722.2z"/>
	</g>
</g>
</svg>
