<?xml version="1.0" encoding="utf-8"?>
<!-- Generator: Adobe Illustrator 22.1.0, SVG Export Plug-In . SVG Version: 6.00 Build 0)  -->
<svg version="1.1" id="Layer_1" xmlns="http://www.w3.org/2000/svg" xmlns:xlink="http://www.w3.org/1999/xlink" x="0px" y="0px"
	 viewBox="0 0 971.4 502" style="enable-background:new 0 0 971.4 502;" xml:space="preserve">
<style type="text/css">
	.st0{opacity:3.000000e-02;}
	.st1{fill:#FFFFFF;}
	.st2{fill:#0A465A;}
	.st3{fill:#003C50;}
	.st4{fill:#145064;}
	.st5{fill:#145A6E;}
	.st6{fill:#464646;}
	.st7{fill:#505050;}
	.st8{fill:#B4E6F0;}
	.st9{fill:#1E6478;}
	.st10{fill:#646464;}
	.st11{opacity:0.3;}
	.st12{fill:#78AA96;}
	.st13{fill:#B4B4B4;}
	.st14{fill:#A0A0A0;}
	.st15{opacity:0.2;}
	.st16{fill:#FED9AE;}
	.st17{fill:#FFE1B9;}
	.st18{fill:#535461;}
	.st19{fill:#E7475E;}
	.st20{fill:#DCDCDC;}
	.st21{fill:#E6E6E6;}
	.st22{fill:#822A3B;}
	.st23{fill:#969696;}
</style>
<g class="st0">
	<g>
		<polygon class="st1" points="678,201 586,201 586,184.4 661.4,184.4 661.4,141.6 678,141.6 		"/>
	</g>
	<g>
		<rect x="560.6" y="106.4" class="st2" width="21.5" height="172.6"/>
	</g>
	<g>
		<rect x="582.1" y="159.2" class="st3" width="8" height="67"/>
	</g>
	<g>
		<path class="st2" d="M686.2,192.7c0,9.1-7.4,16.5-16.5,16.5c-9.1,0-16.5-7.4-16.5-16.5s7.4-16.5,16.5-16.5
			C678.8,176.1,686.2,183.5,686.2,192.7z"/>
	</g>
	<g>
		<rect x="653.2" y="108.7" class="st3" width="33.1" height="47.3"/>
	</g>
	<g>
		<rect x="560.6" y="106.4" class="st4" width="21.5" height="86.3"/>
	</g>
	<g>
		<g>
			<path class="st4" d="M803.1,125.9l-39.2,56c-3.6,5.1-10.6,6.3-15.6,2.8L613.5,90.2c-2.4-1.7-4.1-4.3-4.6-7.2
				c-0.5-2.9,0.2-5.9,1.9-8.4l39.2-56L803.1,125.9z"/>
		</g>
		<g>
			
				<rect x="768.5" y="148.4" transform="matrix(0.5736 -0.8191 0.8191 0.5736 209.6161 714.7237)" class="st3" width="45.6" height="15.2"/>
		</g>
		<g>
			<path class="st4" d="M840.2,139.1l-82.8,15L613.5,53.3l33.8-48.2c3.6-5.1,10.6-6.3,15.6-2.8l183.2,128.3L840.2,139.1z"/>
		</g>
		<g>
			<path class="st2" d="M787.2,148.7l-23.2,33.2c-3.6,5.1-10.6,6.3-15.6,2.8L620.9,95.5l-5-28.4l5.6-8.1L757.4,154L787.2,148.7z"/>
		</g>
		<g>
			<polygon class="st5" points="698.2,112.6 757.4,154.1 840.2,139.1 846.1,130.6 738.4,55.2 			"/>
		</g>
	</g>
</g>
<g class="st0">
	<g>
		<path class="st6" d="M875.7,471.6c-1.2,5.5-6.6,9-12.1,7.8L735,451.5c-5.5-1.2-9-6.6-7.8-12.1l50.7-233.9c1.2-5.5,6.6-9,12.1-7.8
			l128.5,27.8c2.6,0.6,4.9,2.2,6.4,4.4c1.5,2.3,2,5,1.4,7.7L875.7,471.6z"/>
	</g>
	<g>
		<path class="st7" d="M863.5,479.4c5.5,1.2,10.9-2.3,12.1-7.8l50.7-233.9c1.2-5.5-2.3-10.9-7.8-12.1l-64.3-13.9l-55,253.8
			L863.5,479.4z"/>
	</g>
	<g>
		
			<rect x="721.3" y="261.9" transform="matrix(0.2118 -0.9773 0.9773 0.2118 331.3319 1069.5978)" class="st8" width="215" height="134.9"/>
	</g>
	<g>
		<path class="st5" d="M862.4,338.3l-67.3-14.6l9-41.4c3.8-17.3,20.9-28.4,38.2-24.6l4.5,1c17.3,3.8,28.4,20.9,24.6,38.2
			L862.4,338.3z M806,316.7l49.4,10.7l7-32.4c2.7-12.4-5.2-24.6-17.6-27.3l-4.5-1c-12.4-2.7-24.6,5.2-27.3,17.6L806,316.7z"/>
	</g>
	<g>
		<polygon class="st3" points="880.7,334.3 839,283.9 780.2,312.5 		"/>
	</g>
	<g>
		<polygon class="st5" points="837.6,290.4 788.6,314.3 775.1,376.3 858.9,394.4 872.4,332.5 		"/>
	</g>
	<g>
		<polygon class="st9" points="858.9,394.4 872.4,332.5 837.6,290.4 817,385.4 		"/>
	</g>
	<g>
		
			<rect x="813.9" y="340.2" transform="matrix(0.2118 -0.9773 0.9773 0.2118 264.4408 1103.7496)" class="st3" width="5.3" height="95.5"/>
	</g>
	<g>
		<g>
			<path class="st3" d="M838.2,339.4c-1.3,6-7.2,9.8-13.2,8.5c-6-1.3-9.8-7.2-8.5-13.2c1.3-6,7.2-9.8,13.2-8.5
				C835.7,327.5,839.5,333.4,838.2,339.4z"/>
		</g>
		<g>
			<g>
				<path class="st3" d="M828.2,369.5c-6-1.3-8.9-1.9-14.9-3.2c3.8-11.1,5.8-16.6,9.6-27.7c3.2,0.7,4.8,1,8,1.7
					C829.8,352,829.3,357.8,828.2,369.5z"/>
			</g>
		</g>
	</g>
	<g>
		<polygon class="st10" points="819.2,459.6 784.3,452.1 787.6,436.6 822.6,444.2 		"/>
	</g>
	<g class="st11">
		<polygon class="st1" points="769.3,285.1 860.6,226.3 813.6,216.1 779.5,238.1 		"/>
	</g>
</g>
<g class="st0">
	<g>
		<path class="st6" d="M289.9,348.2c1.5,8.1-4,15.9-12.1,17.4L52.1,406.1c-8.1,1.5-15.9-4-17.4-12.1l-47.3-263.8
			c-1.5-8.1,4-15.9,12.1-17.4l225.7-40.4c8.1-1.5,15.9,4,17.4,12.1L289.9,348.2z"/>
	</g>
	<g>
		<path class="st7" d="M289.9,348.2c1.5,8.1-4,15.9-12.1,17.4L165,385.8L112.4,92.6l112.9-20.2c8.1-1.5,15.9,4,17.4,12.1
			L289.9,348.2z"/>
	</g>
	<g>
		
			<rect x="135.8" y="142.5" transform="matrix(0.9843 -0.1764 0.1764 0.9843 -25.4589 35.9787)" class="st12" width="107.7" height="37.4"/>
	</g>
	<g>
		<g>
			
				<rect x="144.8" y="199.7" transform="matrix(0.9843 -0.1764 0.1764 0.9843 -35.3647 31.5431)" class="st10" width="29.9" height="29.9"/>
			
				<rect x="183.9" y="192.7" transform="matrix(0.9843 -0.1764 0.1764 0.9843 -33.5169 38.3263)" class="st10" width="29.9" height="29.9"/>
			
				<rect x="223" y="185.7" transform="matrix(0.9843 -0.1764 0.1764 0.9843 -31.6687 45.1112)" class="st10" width="29.9" height="29.9"/>
		</g>
		<g>
			
				<rect x="152.2" y="241.3" transform="matrix(0.9843 -0.1764 0.1764 0.9843 -42.585 33.5091)" class="st10" width="29.9" height="29.9"/>
			
				<rect x="191.3" y="234.3" transform="matrix(0.9843 -0.1764 0.1764 0.9843 -40.7371 40.2928)" class="st10" width="29.9" height="29.9"/>
			
				<rect x="230.4" y="227.3" transform="matrix(0.9843 -0.1764 0.1764 0.9843 -38.8889 47.0776)" class="st10" width="29.9" height="29.9"/>
		</g>
		<g>
			
				<rect x="159.7" y="282.9" transform="matrix(0.9843 -0.1764 0.1764 0.9843 -49.8063 35.4762)" class="st10" width="29.9" height="29.9"/>
			
				<rect x="198.8" y="275.9" transform="matrix(0.9843 -0.1764 0.1764 0.9843 -47.9583 42.2602)" class="st10" width="29.9" height="29.9"/>
			
				<rect x="237.9" y="268.9" transform="matrix(0.9843 -0.1764 0.1764 0.9843 -46.1101 49.0451)" class="st10" width="29.9" height="29.9"/>
		</g>
		<g>
			
				<rect x="167.2" y="324.6" transform="matrix(0.9843 -0.1764 0.1764 0.9843 -57.0268 37.4431)" class="st10" width="29.9" height="29.9"/>
			
				<rect x="206.2" y="317.5" transform="matrix(0.9843 -0.1764 0.1764 0.9843 -55.1788 44.2271)" class="st10" width="29.9" height="29.9"/>
			
				<rect x="245.3" y="310.5" transform="matrix(0.9843 -0.1764 0.1764 0.9843 -53.3306 51.0119)" class="st10" width="29.9" height="29.9"/>
		</g>
	</g>
	<g>
		<g>
			<path class="st10" d="M96.7,112.8c0.2,1.3-0.7,2.6-2,2.9L4.3,131.9c-1.4,0.2-2.7-0.7-2.9-2c-0.2-1.4,0.7-2.7,2-2.9l90.5-16.2
				C95.2,110.5,96.5,111.4,96.7,112.8z"/>
		</g>
		<g>
			<path class="st10" d="M99.3,127.1c0.2,1.4-0.7,2.7-2,2.9L6.8,146.2c-1.4,0.2-2.7-0.7-2.9-2c-0.2-1.4,0.7-2.7,2-2.9l90.5-16.2
				C97.8,124.9,99.1,125.8,99.3,127.1z"/>
		</g>
		<g>
			<path class="st10" d="M101.9,141.4c0.2,1.4-0.7,2.7-2,2.9L9.4,160.5c-1.4,0.2-2.7-0.7-2.9-2c-0.2-1.4,0.7-2.7,2-2.9L99,139.4
				C100.3,139.2,101.6,140.1,101.9,141.4z"/>
		</g>
		<g>
			<path class="st10" d="M102.4,158.7L12,174.9c-1.4,0.2-2.7-0.7-2.9-2c-0.2-1.4,0.7-2.7,2-2.9l90.5-16.2c1.4-0.2,2.7,0.7,2.9,2
				C104.7,157.1,103.8,158.4,102.4,158.7z"/>
		</g>
		<g>
			<path class="st10" d="M105,173l-90.5,16.2c-1.4,0.2-2.7-0.7-2.9-2c-0.2-1.4,0.7-2.7,2-2.9l90.5-16.2c1.4-0.2,2.7,0.7,2.9,2
				C107.2,171.5,106.3,172.7,105,173z"/>
		</g>
	</g>
	<g>
		<path class="st13" d="M118.3,342.9c2.8,15.8-7.7,30.9-23.5,33.8C79,379.5,63.9,369,61,353.2c-2.8-15.8,7.7-30.9,23.5-33.8
			C100.4,316.6,115.5,327.1,118.3,342.9z"/>
	</g>
	<g>
		<path class="st14" d="M110.3,344.4c2,11.4-5.5,22.3-17,24.4c-11.4,2-22.3-5.6-24.4-17c-2-11.4,5.5-22.3,17-24.4
			C97.4,325.4,108.3,332.9,110.3,344.4z"/>
	</g>
	<g class="st15">
		<polygon class="st1" points="152.1,148.9 136.7,171 140,189.1 160.4,185.5 190.7,142 		"/>
	</g>
	<g>
		<g>
			<path class="st16" d="M291.1,283.2l0.9,7.5l0,0.1l0,0.7l0,0l3.5,30.8l-0.3,0l1.4,13.6c0.4,3.8-0.1,7.7-1.4,11.3l-2.6,7.3
				c-1.1,2.9-1.6,5.9-1.6,9c0,1.2,0.1,2.4,0.3,3.6l7.7,49.3l-71.6,12.8l-7.7-49.6c-0.2-1.1-0.4-2.1-0.7-3.1
				c-1.1-3.8-3.1-7.3-5.8-10.2l-8-8.5c-4.1-4.3-6.4-9.9-6.8-15.8l-2.5-45.3c-0.1-1.1,0.1-2.2,0.3-3.3l0-0.2l-0.9-20.7l0-0.2
				c-0.1-5.4,4.1-10,9.6-10.2l4.2-0.2c2.7-0.1,5.3,0.8,7.3,2.6c1,0.9,1.7,2,2.3,3.1l0,0c0.3,0.7,0.5,1.3,0.7,2.1
				c0.1,0.3,0.1,0.7,0.2,1c0,0.2,0.1,0.5,0.1,0.7c0-1,0.2-2,0.5-3c0.1-0.4,0.3-0.8,0.4-1.2c0.4-1,1-1.9,1.8-2.7
				c1.8-1.9,4.3-3.1,7-3.2l1.9-0.1l2.3-0.1c4.2-0.2,8,2.3,9.6,5.9c0.5,1.1,0.8,2.4,0.9,3.7l0.1,2.7l0,0.1l0,1.4
				c0.2-0.6,0.5-1.1,0.8-1.7c0.1-0.2,0.2-0.4,0.4-0.7c1.6-2.4,4.3-4,7.4-4.3l4.2-0.3c0.6,0,1.3,0,1.9,0c0.6,0.1,1.2,0.2,1.8,0.4
				c0.3,0.1,0.6,0.2,0.9,0.3c0.6,0.3,1.1,0.5,1.6,0.9c2.4,1.5,4.1,3.9,4.5,6.9l0.1,0.3c0.1,0.5,0.1,1,0.2,1.4l0.2,2
				c0-0.1,0.1-0.1,0.1-0.2c0.1-0.3,0.3-0.5,0.4-0.7c0.2-0.2,0.3-0.4,0.5-0.7l0,0c0.3-0.4,0.6-0.8,1.1-1.1c1.5-1.5,3.5-2.4,5.7-2.6
				l4.1-0.5C285.5,273.7,290.5,277.6,291.1,283.2z"/>
		</g>
		<g>
			<path class="st16" d="M216.9,215.6l2.5,51.9c0,0,0,0.1,0,0.1l0.1,2.9l0.6,12.7l-0.8,0l-23.4,1.1l-0.6-12.1l0-0.2l-2.6-53.7
				c-0.4-7.1,5.2-13.2,12.3-13.5C211.3,204.6,216.6,209.4,216.9,215.6z"/>
		</g>
		<g>
			
				<rect x="204.3" y="370.2" transform="matrix(0.9843 -0.1764 0.1764 0.9843 -66.0053 51.2825)" class="st5" width="102.4" height="53.4"/>
		</g>
		<g>
			<path class="st17" d="M291.1,283.2l0.9,7.5l0,0.1l0,0.7l0,0l3.5,30.8l-0.3,0l1.4,13.6c0.4,3.8-0.1,7.7-1.4,11.3l-2.6,7.3
				c-1.1,2.9-1.6,5.9-1.6,9c0,1.2,0.1,2.4,0.3,3.6l7.7,49.3l-38.8,7l-29-162.1l2.3-0.1c4.2-0.2,8,2.3,9.6,5.9
				c0.5,1.1,0.8,2.4,0.9,3.7l0.1,2.7l0,0.1l0,1.4c0.2-0.6,0.5-1.1,0.8-1.7c0.1-0.2,0.2-0.4,0.4-0.7c1.6-2.4,4.3-4,7.4-4.3l4.2-0.3
				c0.6,0,1.3,0,1.9,0c0.6,0.1,1.2,0.2,1.8,0.4c0.3,0.1,0.6,0.2,0.9,0.3c0.6,0.3,1.1,0.5,1.6,0.9c2.4,1.5,4.1,3.9,4.5,6.9l0.1,0.3
				c0.1,0.5,0.1,1,0.2,1.4l0.2,2c0-0.1,0.1-0.1,0.1-0.2c0.1-0.3,0.3-0.5,0.4-0.7c0.2-0.2,0.3-0.4,0.5-0.7l0,0
				c0.3-0.4,0.6-0.8,1.1-1.1c1.5-1.5,3.5-2.4,5.7-2.6l4.1-0.5C285.5,273.7,290.5,277.6,291.1,283.2z"/>
		</g>
		<g>
			
				<rect x="255.1" y="365.7" transform="matrix(0.9843 -0.1764 0.1764 0.9843 -64.8146 55.6536)" class="st9" width="51.2" height="53.4"/>
		</g>
	</g>
</g>
<g>
	<g>
		<rect x="388.3" y="95.2" class="st18" width="27.9" height="57"/>
	</g>
	<g>
		<polygon class="st19" points="654.5,188.3 495.3,62.9 336.1,188.3 		"/>
	</g>
	<g>
		<polygon class="st20" points="495.3,83.7 362.5,188.3 362.5,384.7 628.1,384.7 628.1,188.3 		"/>
	</g>
	<g>
		<polygon class="st21" points="628.1,384.7 628.1,188.3 495.3,83.7 495.3,384.7 		"/>
	</g>
	<g>
		<rect x="396.8" y="240.6" class="st18" width="78.1" height="144.1"/>
	</g>
	<g>
		<rect x="515" y="214.1" class="st18" width="78.8" height="119.6"/>
	</g>
	<g>
		<rect x="347.3" y="384.7" class="st19" width="296" height="16.3"/>
	</g>
	<g>
		<g>
			<polygon class="st19" points="334.3,420 328.3,420 328.3,414 333.7,414 333.7,414.6 334.3,414.6 			"/>
		</g>
		<g>
			<path class="st19" d="M333.7,408h-5.4v-6.1h5.4V408z M333.7,395.9h-5.4v-6.1h5.4V395.9z M333.7,383.8h-5.4v-6.1h5.4V383.8z"/>
		</g>
		<g>
			<polygon class="st19" points="333.7,371.6 328.3,371.6 328.3,365.7 334.3,365.7 334.3,371.1 333.7,371.1 			"/>
		</g>
		<g>
			<polygon class="st19" points="348.9,371.1 342.9,371.1 342.9,365.7 343.4,365.7 343.4,365.1 348.9,365.1 			"/>
		</g>
		<g>
			<path class="st19" d="M348.9,358.8h-5.4v-6.3h5.4V358.8z M348.9,346.3h-5.4V340h5.4V346.3z M348.9,333.7h-5.4v-6.3h5.4V333.7z
				 M348.9,321.1h-5.4v-6.3h5.4V321.1z M348.9,308.5h-5.4v-6.3h5.4V308.5z M348.9,295.9h-5.4v-6.3h5.4V295.9z M348.9,283.4h-5.4
				v-6.3h5.4V283.4z M348.9,270.8h-5.4v-6.3h5.4V270.8z M348.9,258.2h-5.4v-6.3h5.4V258.2z M348.9,245.6h-5.4v-6.3h5.4V245.6z
				 M348.9,233h-5.4v-6.3h5.4V233z M348.9,220.5h-5.4v-6.3h5.4V220.5z"/>
		</g>
		<g>
			<polygon class="st19" points="348.9,207.9 343.4,207.9 343.4,207.3 342.9,207.3 342.9,201.9 348.9,201.9 			"/>
		</g>
		<g>
			<path class="st19" d="M335.7,207.3h-7.2v-5.4h7.2V207.3z M321.2,207.3H314v-5.4h7.2V207.3z M306.7,207.3h-7.2v-5.4h7.2V207.3z"/>
		</g>
		<g>
			<polygon class="st19" points="292.3,207.3 281.2,207.3 289.9,200.5 291,201.9 292.3,201.9 292.3,203.5 293.3,204.7 292.3,205.5 
							"/>
		</g>
		<g>
			<path class="st19" d="M298.5,200.6l-3.4-4.3l5.2-4.1l3.4,4.3L298.5,200.6z M308.8,192.5l-3.4-4.3l5.2-4.1l3.4,4.3L308.8,192.5z
				 M319.2,184.3l-3.4-4.3l5.2-4.1l3.4,4.3L319.2,184.3z M329.6,176.1l-3.4-4.3l5.2-4.1l3.4,4.3L329.6,176.1z M340,168l-3.4-4.3
				l5.2-4.1l3.4,4.3L340,168z M350.3,159.8l-3.4-4.3l5.2-4.1l3.4,4.3L350.3,159.8z M360.7,151.6l-3.4-4.3l5.2-4.1l3.4,4.3
				L360.7,151.6z"/>
		</g>
		<g>
			<polygon class="st19" points="371.1,143.5 367.7,139.2 369.2,138 369.2,136 374.7,136 374.7,140.6 			"/>
		</g>
		<g>
			<path class="st19" d="M374.7,130h-5.4v-6h5.4V130z M374.7,118.1h-5.4v-6h5.4V118.1z M374.7,106.1h-5.4v-6h5.4V106.1z M374.7,94.1
				h-5.4v-6h5.4V94.1z"/>
		</g>
		<g>
			<polygon class="st19" points="374.7,82.2 369.2,82.2 369.2,76.2 375.2,76.2 375.2,81.6 374.7,81.6 			"/>
		</g>
		<g>
			<path class="st19" d="M423.2,81.6h-6v-5.4h6V81.6z M411.2,81.6h-6v-5.4h6V81.6z M399.2,81.6h-6v-5.4h6V81.6z M387.2,81.6h-6v-5.4
				h6V81.6z"/>
		</g>
		<g>
			<polygon class="st19" points="435.2,82.2 429.7,82.2 429.7,81.6 429.2,81.6 429.2,76.2 435.2,76.2 			"/>
		</g>
		<g>
			<polygon class="st19" points="429.7,97.3 429.7,88.4 432.2,88.4 433.3,87.5 434,88.4 435.2,88.4 435.2,89.8 436.7,91.8 			"/>
		</g>
		<g>
			<path class="st19" d="M441.9,87.6l-3.4-4.3l5.3-4.1l3.4,4.3L441.9,87.6z M452.4,79.4l-3.4-4.3l5.3-4.1l3.4,4.3L452.4,79.4z
				 M462.9,71.1l-3.4-4.3l5.3-4.1l3.4,4.3L462.9,71.1z M473.4,62.8l-3.4-4.3l5.3-4.1l3.4,4.3L473.4,62.8z M483.9,54.6l-3.4-4.3
				l5.3-4.1l3.4,4.3L483.9,54.6z"/>
		</g>
		<g>
			<polygon class="st19" points="496.2,46.3 495.3,45.6 494.4,46.3 491,42 495.3,38.7 499.5,42 			"/>
		</g>
		<g>
			<path class="st19" d="M692.1,200.7l-5.2-4.1l3.4-4.3l5.2,4.1L692.1,200.7z M681.8,192.5l-5.2-4.1l3.4-4.3l5.2,4.1L681.8,192.5z
				 M671.5,184.4l-5.2-4.1l3.4-4.3l5.2,4.1L671.5,184.4z M661.2,176.3l-5.2-4.1l3.4-4.3l5.2,4.1L661.2,176.3z M650.9,168.2l-5.2-4.1
				l3.4-4.3l5.2,4.1L650.9,168.2z M640.6,160l-5.2-4.1l3.4-4.3l5.2,4.1L640.6,160z M630.3,151.9l-5.2-4.1l3.4-4.3l5.2,4.1
				L630.3,151.9z M619.9,143.8l-5.2-4.1l3.4-4.3l5.2,4.1L619.9,143.8z M609.6,135.7l-5.2-4.1l3.4-4.3l5.2,4.1L609.6,135.7z
				 M599.3,127.6l-5.2-4.1l3.4-4.3l5.2,4.1L599.3,127.6z M589,119.4l-5.2-4.1l3.4-4.3l5.2,4.1L589,119.4z M578.7,111.3l-5.2-4.1
				l3.4-4.3l5.2,4.1L578.7,111.3z M568.4,103.2l-5.2-4.1l3.4-4.3l5.2,4.1L568.4,103.2z M558.1,95l-5.2-4.1l3.4-4.3l5.2,4.1L558.1,95
				z M547.7,86.9l-5.2-4.1l3.4-4.3l5.2,4.1L547.7,86.9z M537.4,78.8l-5.2-4.1l3.4-4.3l5.2,4.1L537.4,78.8z M527.1,70.7l-5.2-4.1
				l3.4-4.3l5.2,4.1L527.1,70.7z M516.8,62.5l-5.2-4.1l3.4-4.3l5.2,4.1L516.8,62.5z M506.5,54.4l-5.2-4.1l3.4-4.3l5.1,4.1
				L506.5,54.4z"/>
		</g>
		<g>
			<polygon class="st19" points="709.4,207.3 698.3,207.3 698.3,205.5 697.3,204.7 698.3,203.5 698.3,201.9 699.5,201.9 
				700.7,200.5 			"/>
		</g>
		<g>
			<path class="st19" d="M691.1,207.3h-7.2v-5.4h7.2V207.3z M676.6,207.3h-7.2v-5.4h7.2V207.3z M662.2,207.3h-7.2v-5.4h7.2V207.3z"
				/>
		</g>
		<g>
			<polygon class="st19" points="647.2,207.9 641.7,207.9 641.7,201.9 647.7,201.9 647.7,207.3 647.2,207.3 			"/>
		</g>
		<g>
			<path class="st19" d="M647.2,358.8h-5.4v-6.3h5.4V358.8z M647.2,346.2h-5.4V340h5.4V346.2z M647.2,333.7h-5.4v-6.3h5.4V333.7z
				 M647.2,321.1h-5.4v-6.3h5.4V321.1z M647.2,308.5h-5.4v-6.3h5.4V308.5z M647.2,295.9h-5.4v-6.3h5.4V295.9z M647.2,283.4h-5.4
				v-6.3h5.4V283.4z M647.2,270.8h-5.4v-6.3h5.4V270.8z M647.2,258.2h-5.4v-6.3h5.4V258.2z M647.2,245.6h-5.4v-6.3h5.4V245.6z
				 M647.2,233h-5.4v-6.3h5.4V233z M647.2,220.5h-5.4v-6.3h5.4V220.5z"/>
		</g>
		<g>
			<polygon class="st19" points="647.7,371.1 641.7,371.1 641.7,365.1 647.2,365.1 647.2,365.7 647.7,365.7 			"/>
		</g>
		<g>
			<polygon class="st19" points="662.3,371.6 656.9,371.6 656.9,371.1 656.3,371.1 656.3,365.7 662.3,365.7 			"/>
		</g>
		<g>
			<path class="st19" d="M662.3,408h-5.4v-6.1h5.4V408z M662.3,395.9h-5.4v-6.1h5.4V395.9z M662.3,383.8h-5.4v-6.1h5.4V383.8z"/>
		</g>
		<g>
			<polygon class="st19" points="662.3,420 656.3,420 656.3,414.6 656.9,414.6 656.9,414 662.3,414 			"/>
		</g>
		<g>
			<path class="st19" d="M649.8,420h-6.6v-5.4h6.6V420z M636.6,420H630v-5.4h6.6V420z M623.5,420h-6.6v-5.4h6.6V420z M610.3,420
				h-6.6v-5.4h6.6V420z M597.2,420h-6.6v-5.4h6.6V420z M584,420h-6.6v-5.4h6.6V420z M570.9,420h-6.6v-5.4h6.6V420z M557.7,420h-6.6
				v-5.4h6.6V420z M544.6,420H538v-5.4h6.6V420z M531.4,420h-6.6v-5.4h6.6V420z M518.3,420h-6.6v-5.4h6.6V420z M505.2,420h-6.6v-5.4
				h6.6V420z M492,420h-6.6v-5.4h6.6V420z M478.9,420h-6.6v-5.4h6.6V420z M465.7,420h-6.6v-5.4h6.6V420z M452.6,420H446v-5.4h6.6
				V420z M439.4,420h-6.6v-5.4h6.6V420z M426.3,420h-6.6v-5.4h6.6V420z M413.1,420h-6.6v-5.4h6.6V420z M400,420h-6.6v-5.4h6.6V420z
				 M386.9,420h-6.6v-5.4h6.6V420z M373.7,420h-6.6v-5.4h6.6V420z M360.6,420H354v-5.4h6.6V420z M347.4,420h-6.6v-5.4h6.6V420z"/>
		</g>
	</g>
	<g>
		<g>
			<path class="st19" d="M636,410.4c3.7-1.4,7.8,0.6,9.1,4.3l3.7,10.2l-17.3,6.3l-3.7-10.2c-1.3-3.7,0.6-7.8,4.3-9.1L636,410.4
				L636,410.4z M634.2,405.4l-3.9,1.4c-6.5,2.4-9.8,9.5-7.5,16l5.5,15.2l27.4-10l-5.5-15.2C647.8,406.4,640.6,403,634.2,405.4
				L634.2,405.4z"/>
		</g>
		<g>
			<path class="st19" d="M672.7,451.2c0.4,1.2,0.4,2.6-0.2,3.8c-0.6,1.2-1.6,2.1-2.8,2.6l-33.3,12.1c-1.2,0.5-2.6,0.4-3.8-0.2
				c-1.2-0.6-2.1-1.6-2.6-2.8l-9.7-26.7c-0.9-2.6,0.4-5.4,3-6.4l33.3-12.1c1.2-0.4,2.6-0.4,3.8,0.2c1.2,0.6,2.1,1.6,2.6,2.8
				L672.7,451.2z"/>
		</g>
		<g>
			<path class="st22" d="M650.2,448c-0.6-1.1-1.1-2.2-1.8-3.4c-0.2-0.4-0.4-0.7-0.6-1.1c1.1-1.2,1.5-2.9,0.9-4.5
				c-0.8-2.3-3.3-3.4-5.5-2.6c-2.3,0.8-3.4,3.3-2.6,5.6c0.6,1.6,2,2.6,3.6,2.8c0.1,0.4,0.2,0.8,0.3,1.2c0.3,1.3,0.6,2.5,0.8,3.7
				c0.3,1.2,0.6,2.4,0.9,3.7c0.3,1.3,0.6,2.7,1,4.4c1.3-0.5,2.4-0.9,3.4-1.2c1-0.4,2-0.7,3.4-1.2c-0.8-1.5-1.4-2.8-2-4
				C651.3,450.2,650.8,449.1,650.2,448z"/>
		</g>
	</g>
</g>
<g>
	<g>
		<path class="st20" d="M439.2,432.9c0,3.9-3.2,7-7,7H276.9c-3.9,0-7-3.2-7-7V305.3c0-3.9,3.2-7,7-7h155.2c3.8,0,7,3.2,7,7V432.9z"
			/>
	</g>
	<g>
		<path class="st21" d="M432.2,440c3.8,0,7-3.2,7-7V305.3c0-3.9-3.2-7-7-7h-77.6V440H432.2z"/>
	</g>
	<g>
		<rect x="292.5" y="306.5" class="st12" width="124.1" height="24.9"/>
	</g>
	<g>
		<g>
			<rect x="280.9" y="343.5" class="st23" width="23.3" height="12.3"/>
		</g>
		<g>
			<rect x="280.9" y="367.9" class="st23" width="23.3" height="12.3"/>
		</g>
		<g>
			<rect x="280.9" y="392.3" class="st23" width="23.3" height="12.3"/>
		</g>
		<g>
			<rect x="280.9" y="416.7" class="st23" width="23.3" height="12.3"/>
		</g>
	</g>
	<g>
		<g>
			<rect x="404.8" y="343.5" class="st23" width="23.3" height="12.3"/>
		</g>
		<g>
			<rect x="404.8" y="367.9" class="st23" width="23.3" height="12.3"/>
		</g>
		<g>
			<rect x="404.8" y="392.3" class="st23" width="23.3" height="12.3"/>
		</g>
		<g>
			<rect x="404.8" y="416.7" class="st23" width="23.3" height="12.3"/>
		</g>
	</g>
	<g>
		<g>
			<g>
				<path class="st13" d="M335.6,349.6c0,3.4-5.1,6.1-11.4,6.1c-6.3,0-11.4-2.8-11.4-6.1c0-3.4,5.1-6.1,11.4-6.1
					C330.5,343.5,335.6,346.2,335.6,349.6z"/>
			</g>
			<g>
				<path class="st13" d="M365.7,349.6c0,3.4-5.1,6.1-11.4,6.1c-6.3,0-11.4-2.8-11.4-6.1c0-3.4,5.1-6.1,11.4-6.1
					C360.6,343.5,365.7,346.2,365.7,349.6z"/>
			</g>
			<g>
				<path class="st13" d="M395.9,349.6c0,3.4-5.1,6.1-11.4,6.1c-6.3,0-11.4-2.8-11.4-6.1c0-3.4,5.1-6.1,11.4-6.1
					C390.8,343.5,395.9,346.2,395.9,349.6z"/>
			</g>
		</g>
		<g>
			<g>
				<path class="st13" d="M335.6,374c0,3.4-5.1,6.1-11.4,6.1c-6.3,0-11.4-2.8-11.4-6.1c0-3.4,5.1-6.1,11.4-6.1
					C330.5,367.9,335.6,370.6,335.6,374z"/>
			</g>
			<g>
				<path class="st13" d="M365.7,374c0,3.4-5.1,6.1-11.4,6.1c-6.3,0-11.4-2.8-11.4-6.1c0-3.4,5.1-6.1,11.4-6.1
					C360.6,367.9,365.7,370.6,365.7,374z"/>
			</g>
			<g>
				<path class="st13" d="M395.9,374c0,3.4-5.1,6.1-11.4,6.1c-6.3,0-11.4-2.8-11.4-6.1c0-3.4,5.1-6.1,11.4-6.1
					C390.8,367.9,395.9,370.6,395.9,374z"/>
			</g>
		</g>
		<g>
			<g>
				<path class="st13" d="M335.6,398.4c0,3.4-5.1,6.1-11.4,6.1c-6.3,0-11.4-2.8-11.4-6.1s5.1-6.1,11.4-6.1
					C330.5,392.3,335.6,395,335.6,398.4z"/>
			</g>
			<g>
				<path class="st13" d="M365.7,398.4c0,3.4-5.1,6.1-11.4,6.1c-6.3,0-11.4-2.8-11.4-6.1s5.1-6.1,11.4-6.1
					C360.6,392.3,365.7,395,365.7,398.4z"/>
			</g>
			<g>
				<path class="st13" d="M395.9,398.4c0,3.4-5.1,6.1-11.4,6.1c-6.3,0-11.4-2.8-11.4-6.1s5.1-6.1,11.4-6.1
					C390.8,392.3,395.9,395,395.9,398.4z"/>
			</g>
		</g>
		<g>
			<g>
				<path class="st13" d="M365.7,422.8c0,3.4-5.1,6.1-11.4,6.1c-6.3,0-11.4-2.8-11.4-6.1c0-3.4,5.1-6.1,11.4-6.1
					C360.6,416.7,365.7,419.5,365.7,422.8z"/>
			</g>
		</g>
	</g>
	<g class="st15">
		<polygon class="st1" points="293.5,331.4 331.5,331.4 356.4,306.5 318.5,306.5 		"/>
	</g>
</g>
<image style="overflow:visible;" width="306" height="100" xlink:href="pignus_logo.png"  transform="matrix(1 0 0 1 240.4196 -215.4795)">
</image>
<ellipse class="st19" cx="-87.9" cy="199.3" rx="51" ry="99.2"/>
</svg>
