<?xml version="1.0" encoding="utf-8"?>
<!-- Generator: Adobe Illustrator 22.1.0, SVG Export Plug-In . SVG Version: 6.00 Build 0)  -->
<svg version="1.1" id="monitor" xmlns="http://www.w3.org/2000/svg" xmlns:xlink="http://www.w3.org/1999/xlink" x="0px" y="0px"
	 viewBox="0 0 300 300" style="enable-background:new 0 0 300 300;" xml:space="preserve">
<style type="text/css">
	.st0{fill:#E7475E;}
	.st1{fill:#322153;}
</style>
<path id="Path_306" class="st0" d="M-174.1,136.9c0,2,1.6,3.6,3.6,3.6h43.3c2,0,3.6-1.6,3.6-3.6v-7.2h-50.5V136.9z"/>
<g id="Group_148">
	<path id="Path_307" class="st1" d="M-127.2,96.3h-43.3c-2.5,0-4.5,2-4.5,4.4v0.1v32.5c0,2.5,2,4.5,4.4,4.5h0.1h13l-2.7,5.4h-1.3
		c-1.5,0-2.7,1.1-2.7,2.6v0.1c0,0.7,0.3,1.4,0.8,1.9s1.2,0.8,1.9,0.8h25.2c1.5,0,2.7-1.1,2.7-2.6v-0.1c0-1.5-1.2-2.7-2.7-2.7h-1.3
		l-2.7-5.4h13c2.5,0,4.5-2,4.5-4.4v-0.1v-32.5C-122.7,98.3-124.7,96.3-127.2,96.3L-127.2,96.3z M-139.5,143.2h-16.6
		c-0.5,0-0.9,0.4-0.9,0.9s0.4,0.9,0.9,0.9h19.8c0.5,0,0.9,0.4,0.9,0.9s-0.3,0.9-0.8,0.9h-0.1h-25.2c-0.5,0-0.9-0.4-0.9-0.9
		s0.3-0.9,0.8-0.9h0.1h1.8c0.4,0,0.7-0.2,0.8-0.5l1.5-3.1h4.9c0.5,0,0.9-0.4,0.9-0.9s-0.4-0.9-0.9-0.9l0,0h-4l0.9-1.8h13.3
		L-139.5,143.2z M-127.2,136.1h-43.3c-1.5,0-2.7-1.1-2.7-2.6v-0.1v-32.5c0-1.5,1.1-2.7,2.6-2.7h0.1h43.3c1.5,0,2.7,1.1,2.7,2.6v0.1
		v24.3h-46c-0.5,0-0.9,0.4-0.9,0.9s0.4,0.9,0.9,0.9l0,0h46v6.4C-124.5,134.9-125.6,136.1-127.2,136.1
		C-127.2,136.1-127.2,136.1-127.2,136.1L-127.2,136.1z"/>
	<path id="Path_308" class="st1" d="M-148.9,128.9c-1.5,0-2.7,1.2-2.7,2.7s1.2,2.7,2.7,2.7s2.7-1.2,2.7-2.7l0,0
		C-146.1,130.1-147.3,128.9-148.9,128.9C-148.8,128.9-148.8,128.9-148.9,128.9z M-148.9,132.4c-0.5,0-0.9-0.4-0.9-0.9
		s0.4-0.9,0.9-0.9s0.9,0.4,0.9,0.9l0,0C-147.9,131.9-148.3,132.4-148.9,132.4C-148.8,132.4-148.8,132.4-148.9,132.4z"/>
	<path id="Path_309" class="st1" d="M-170.5,108.9c0.2,0,0.5-0.1,0.6-0.3l7.2-7.2c0.3-0.4,0.3-0.9,0-1.3c-0.3-0.3-0.9-0.3-1.2,0
		l-7.2,7.2c-0.3,0.3-0.4,0.9,0,1.2l0,0C-171,108.8-170.8,108.9-170.5,108.9z"/>
	<path id="Path_310" class="st1" d="M-170.5,105.3c0.2,0,0.5-0.1,0.6-0.3l3.6-3.6c0.3-0.4,0.3-0.9,0-1.3c-0.3-0.3-0.9-0.3-1.2,0
		l-3.6,3.6c-0.3,0.3-0.4,0.9,0,1.2l0,0C-171,105.2-170.8,105.3-170.5,105.3z"/>
	<path id="Path_311" class="st1" d="M-163.9,103.8l-3.6,3.6c-0.3,0.3-0.4,0.9,0,1.2l0,0c0.3,0.3,0.9,0.4,1.2,0l0,0l3.6-3.6
		c0.3-0.4,0.3-0.9,0-1.3C-163.1,103.6-163.6,103.6-163.9,103.8z"/>
	<path id="Path_312" class="st1" d="M-127.2,128.9c-0.5,0-0.9,0.3-0.9,0.8v0.1c0.1,1.4-1,2.6-2.5,2.7c-0.1,0-0.2,0-0.3,0
		c-0.5,0-0.9,0.4-0.9,0.9s0.3,0.9,0.8,0.9h0.1c2.4,0.1,4.4-1.8,4.5-4.2c0-0.1,0-0.2,0-0.4C-126.3,129.2-126.7,128.9-127.2,128.9
		L-127.2,128.9L-127.2,128.9z"/>
</g>
<g>
	<g>
		<path class="st1" d="M253.4,94.4c0,4.8-3.1,8.8-7.5,10.6v42.2c0,6.6-2.6,13.2-7.9,18l-29,27.7v59.4c0,10.1-8.8,18.9-19.4,18.9
			H86.7c-10.6,0-19.4-8.4-19.4-18.9v-80.5c-12.8-15-20.7-34.3-20.7-55.4c0-48.4,40.9-87.5,91.5-87.5s91.5,39.2,91.5,87.5
			c0,21.1-7.9,40.5-20.7,55.4v9.7l23.3-22.4c3.5-3.5,5.3-7.9,5.3-12.3v-42.2c-4.4-1.8-7.5-5.7-7.5-10.6c0-6.2,5.3-11,11.9-11
			C248.1,82.9,253.4,88.2,253.4,94.4z M245,94.4c0-1.8-1.8-3.1-3.5-3.1c-1.8,0-3.5,1.3-3.5,3.1c0,1.8,1.8,3.1,3.5,3.1
			C243.7,97.4,245,96.1,245,94.4z M200.6,251.8v-71.7c-11.9,10.6-26.4,18.5-43.1,21.6v24.6l9.7,9.2c1.3-0.4,2.6-0.9,4.4-0.9
			c5.7,0,10.6,4.4,10.6,10.1c0,5.7-4.8,10.1-10.6,10.1s-10.6-4.4-10.6-10.1c0-1.3,0.4-2.6,0.9-3.5l-11-10.6
			c-0.9-0.9-1.3-1.8-1.3-2.6V203c-2.2,0.4-4.8,0.4-7.5,0.4v37.8c4,1.8,6.6,5.3,6.6,9.2c0,5.7-4.8,10.1-10.6,10.1
			c-5.7,0-10.6-4.4-10.6-10.1c0-4.4,2.6-7.9,6.6-9.2v-37.8c-2.6,0-4.8-0.4-7.5-0.4v15c0,0.9-0.4,2.2-1.3,2.6l-11,10.6
			c0.4,1.3,0.9,2.2,0.9,3.5c0,5.7-4.8,10.1-10.6,10.1c-5.7,0-10.6-4.4-10.6-10.1c0-5.7,4.8-10.1,10.6-10.1c1.3,0,3.1,0.4,4.4,0.9
			l9.7-9.2v-14.5c-16.3-3.5-31.2-11-43.1-21.6v71.7c0,6.2,5.3,11,11.4,11h102.5C195.7,262.8,200.6,258,200.6,251.8z M221.3,116.3
			c0-44-37.4-79.6-83.1-79.6S55,72.4,55,116.3S92.4,196,138.1,196S221.3,160.3,221.3,116.3z M174.2,245.2c0-1.3-0.9-2.2-2.2-2.2
			s-2.2,0.9-2.2,2.2c0,1.3,0.9,2.2,2.2,2.2C172.9,247.4,174.2,246.6,174.2,245.2z M140.3,251c0-1.3-0.9-2.2-2.2-2.2
			s-2.2,0.9-2.2,2.2s0.9,2.2,2.2,2.2C139.4,253.2,140.3,252.3,140.3,251z M106.9,235.1c0-1.3-0.9-2.2-2.2-2.2
			c-1.3,0-2.2,0.9-2.2,2.2s0.9,2.2,2.2,2.2C106,237.3,106.9,236.4,106.9,235.1z"/>
		<path class="st0" d="M241.5,90.8c1.8,0,3.5,1.3,3.5,3.1c0,1.8-1.8,3.1-3.5,3.1c-1.8,0-3.5-1.3-3.5-3.1
			C238.4,92.2,239.7,90.8,241.5,90.8z"/>
		<path class="st1" d="M214.7,116.3c0,2.2-1.8,4-4,4s-4-1.8-4-4c0-27.7-18.5-52.8-46.2-61.6c-2.2-0.9-3.1-3.1-2.6-4.8
			c0.9-2.2,3.1-3.1,5.3-2.6C193.5,57.4,214.7,85.1,214.7,116.3z"/>
		<path class="st0" d="M138.1,36.7c45.7,0,83.1,35.6,83.1,79.6S183.9,196,138.1,196S55,160.3,55,116.3C55,72.4,92.4,36.7,138.1,36.7
			z M210.3,120.3c2.2,0,4-1.8,4-4c0-31.2-20.7-58.9-51.5-69.1c-2.2-0.9-4.4,0.4-5.3,2.6c-0.9,2.2,0.4,4.4,2.6,4.8
			c27.7,9.2,46.2,33.9,46.2,61.6C206.3,118.5,208.1,120.3,210.3,120.3z M161.4,116.3c0-12.3-10.6-22.4-23.3-22.4
			s-23.3,10.1-23.3,22.4s10.6,22.4,23.3,22.4S161.4,128.7,161.4,116.3z M153.5,48.6c0.4-2.2-1.3-4.4-3.5-4.4
			c-4-0.4-7.9-0.9-11.9-0.9c-2.2,0-4,1.8-4,4s1.8,4,4,4c3.5,0,7,0.4,10.6,0.9h0.4C151.3,52.1,153.1,50.8,153.5,48.6z M142.1,185.4
			c0-2.2-1.8-4-4-4c-3.1,0-6.6-0.4-9.7-0.9c-2.2-0.4-4.4,1.3-4.8,3.5c-0.4,2.2,1.3,4,3.5,4.4c3.5,0.4,7.5,0.9,11,0.9
			C140.3,189.4,142.1,187.6,142.1,185.4z M115.2,182.3c0.9-2.2,0-4.4-2.2-5.3c-19.4-7.5-34.3-23.3-40.5-42.2
			c-0.4-2.2-3.1-3.1-5.3-2.6c-2.2,0.4-3.5,2.6-2.6,4.8c7,21.6,23.8,39.2,45.3,47.5c0.4,0,0.9,0.4,1.3,0.4
			C113,184.5,114.8,183.7,115.2,182.3z M66.9,128.2c2.2-0.4,4-2.2,3.5-4.4c-0.4-2.6-0.4-4.8-0.4-7.5c0-2.2-1.8-4-4-4
			c-2.2,0-4,1.8-4,4c0,2.6,0,5.7,0.4,8.4c0.4,2.2,2.2,3.5,4,3.5C66.4,128.2,66.9,128.2,66.9,128.2z"/>
		<ellipse class="st0" cx="171.6" cy="245.2" rx="2.2" ry="2.2"/>
		<path class="st1" d="M138.1,93.9c12.8,0,23.3,10.1,23.3,22.4s-10.6,22.4-23.3,22.4s-23.3-10.1-23.3-22.4S125.4,93.9,138.1,93.9z
			 M153.1,116.3c0-7.9-6.6-14.5-15-14.5s-15,6.6-15,14.5s6.6,14.5,15,14.5C146.5,130.9,153.1,124.3,153.1,116.3z"/>
		<path class="st1" d="M138.1,181.5c2.2,0,4,1.8,4,4s-1.8,4-4,4c-3.5,0-7.5-0.4-11-0.9c-2.2-0.4-4-2.2-3.5-4.4
			c0.4-2.2,2.6-3.5,4.8-3.5C131.5,181.5,135,181.5,138.1,181.5z"/>
		<path class="st0" d="M138.1,248.8c1.3,0,2.2,0.9,2.2,2.2s-0.9,2.2-2.2,2.2s-2.2-0.9-2.2-2.2S136.8,248.8,138.1,248.8z"/>
		<path class="st1" d="M113,177.1c2.2,0.9,3.1,3.1,2.2,5.3c-0.4,1.8-2.2,2.6-4,2.6c-0.4,0-0.9,0-1.3-0.4
			c-21.6-8.4-38.3-26-45.3-47.5c-0.4-2.2,0.4-4.4,2.6-4.8c2.2-0.4,4.4,0.4,5.3,2.6C78.7,153.7,93.7,169.6,113,177.1z"/>
		<path class="st0" d="M104.7,232.9c1.3,0,2.2,0.9,2.2,2.2s-0.9,2.2-2.2,2.2c-1.3,0-2.2-0.9-2.2-2.2
			C102.1,233.8,103.4,232.9,104.7,232.9z"/>
		<path class="st1" d="M70.4,123.8c0.4,2.2-1.3,4-3.5,4.4h-0.4c-2.2,0-4-1.3-4-3.5c-0.4-2.6-0.4-5.7-0.4-8.4c0-2.2,1.8-4,4-4
			c2.2,0,4,1.8,4,4C69.9,119,70.4,121.6,70.4,123.8z"/>
	</g>
	<path class="st1" d="M150,44.2c2.2,0.4,4,2.2,3.5,4.4c-0.4,1.8-2.2,3.5-4,3.5h-0.4c-3.5-0.4-7-0.9-10.6-0.9c-2.2,0-4-1.8-4-4
		s1.8-4,4-4C142.1,43.3,146,43.8,150,44.2z"/>
</g>
</svg>
