<?xml version="1.0" encoding="utf-8"?>
<!-- Generator: Adobe Illustrator 22.1.0, SVG Export Plug-In . SVG Version: 6.00 Build 0)  -->
<svg version="1.1" id="Layer_1" xmlns="http://www.w3.org/2000/svg" xmlns:xlink="http://www.w3.org/1999/xlink" x="0px" y="0px"
	 viewBox="0 0 300 300" style="enable-background:new 0 0 300 300;" xml:space="preserve">
<style type="text/css">
	.st0{fill:#E7475E;}
	.st1{fill:#322153;}
</style>
<g id="target" transform="translate(-.177)">
	<circle id="Ellipse_22" class="st0" cx="-139.5" cy="122.9" r="16.4"/>
	<g id="Group_149" transform="translate(.177)">
		<path id="Path_313" class="st1" d="M-121.7,136.9C-121.6,136.9-121.6,136.8-121.7,136.9c10-9.9,10.1-26,0.2-36l-0.1-0.1v-0.1
			c0-0.1,0,0-0.1,0c-4.8-4.8-11.3-7.5-18-7.5c-5.1,0-10.1,1.5-14.3,4.4c-0.5,0.3-0.6,1-0.3,1.4c0.3,0.5,1,0.6,1.4,0.3
			c3.6-2.5,7.8-3.9,12.2-4.1v3.1c0,0.5,0.4,1,0.9,1h0.1c10.7,0,19.4,8.7,19.4,19.4l0,0c0,0.5,0.4,1,0.9,1h0.1h3.1
			c-0.2,5.5-2.4,10.8-6.1,14.8l-2.1-2.1c-0.4-0.4-1-0.4-1.4,0c-0.4,0.4-0.4,1,0,1.4l2.1,2.1c-4.1,3.7-9.3,5.9-14.8,6.1v-3.1
			c0-0.6-0.5-1-1-1c-0.6,0-1,0.5-1,1v3.1c-5.5-0.2-10.8-2.4-14.8-6.1l2.1-2.1c0.4-0.4,0.3-1.1-0.1-1.4s-0.9-0.3-1.3,0l-2.1,2.1
			c-3.7-4.1-5.9-9.3-6.1-14.8h3.1c0.6,0,1-0.5,1-1c0-0.6-0.5-1-1-1h-3.3c0.2-4.3,1.5-8.4,3.9-12c0.3-0.5,0.2-1.1-0.3-1.4
			c-0.5-0.3-1.1-0.2-1.4,0.3c-2.8,4.2-4.2,9.1-4.2,14.1c0,6.8,2.7,13.2,7.5,18v0.1c0,0.1,0,0,0.1,0
			C-147.8,146.9-131.7,146.9-121.7,136.9C-121.7,137-121.7,136.9-121.7,136.9L-121.7,136.9z M-125.3,103c-3.7-3.4-8.4-5.3-13.4-5.5
			v-2.1c5.5,0.1,10.8,2.3,14.8,6L-125.3,103z M-123.9,104.4l1.4-1.4c3.7,4.1,5.9,9.3,6.1,14.8h-2
			C-118.5,112.8-120.5,108.1-123.9,104.4z"/>
		<path id="Path_314" class="st1" d="M-164.7,89.2c-0.4,0.1-0.6,0.5-0.6,0.9v3.1h-3.1c-0.4,0-0.8,0.2-0.9,0.6
			c-0.1,0.4-0.1,0.8,0.2,1.1l4.1,4.1c0.2,0.2,0.4,0.3,0.7,0.3h3.7l18.4,18.4h-1.6c-0.6,0-1,0.5-1,1s0.5,1,1,1l0,0h4.1
			c0.1,0,0.2,0,0.3-0.1h0.1c0.1,0,0.1-0.1,0.2-0.1c0.1,0,0.1,0,0.1-0.1l0,0c0.1-0.1,0.1-0.2,0.2-0.3c0-0.1,0.1-0.2,0.1-0.3v-4.1
			c0-0.6-0.5-1-1-1c-0.6,0-1,0.5-1,1l0,0v1.8L-159.2,98v-3.8c0-0.3-0.1-0.5-0.3-0.7l-4.1-4C-163.9,89.1-164.3,89.1-164.7,89.2z
			 M-163.9,97.3l-2-2h1.2l2,2H-163.9z M-163.3,92.6l2,2v1.2l-2-2V92.6z"/>
		<path id="Path_315" class="st1" d="M-153.5,110c-0.5-0.3-1.1-0.1-1.4,0.4l0,0c-1.4,2.6-2.2,5.5-2.1,8.4c0,9.6,7.8,17.4,17.4,17.4
			c9.6,0,17.4-7.8,17.4-17.4s-7.9-17.4-17.5-17.4c-2.9,0-5.8,0.7-8.4,2.1c-0.5,0.3-0.7,0.9-0.4,1.4c0.3,0.5,0.9,0.7,1.4,0.4
			c2.3-1.3,4.9-1.9,7.5-1.9c8.5,0,15.3,6.9,15.3,15.4s-6.9,15.3-15.4,15.3s-15.3-6.9-15.3-15.3c0-2.6,0.6-5.2,1.9-7.5
			C-152.9,110.8-153.1,110.3-153.5,110z"/>
		<circle id="Ellipse_23" class="st1" cx="-139.7" cy="106.5" r="1"/>
		<circle id="Ellipse_24" class="st1" cx="-139.7" cy="131.1" r="1"/>
		<circle id="Ellipse_25" class="st1" cx="-152" cy="118.8" r="1"/>
		<circle id="Ellipse_26" class="st1" cx="-127.4" cy="118.8" r="1"/>
		<circle id="Ellipse_27" class="st1" cx="-131" cy="127.5" r="1"/>
		<circle id="Ellipse_28" class="st1" cx="-148.4" cy="127.5" r="1"/>
		<circle id="Ellipse_29" class="st1" cx="-131" cy="110.1" r="1"/>
		<path id="Path_316" class="st1" d="M-111.1,117.8c-0.5,0-1,0.4-1,0.9v0.1c0,15.3-12.4,27.6-27.6,27.6c-0.6,0-1,0.5-1,1s0.5,1,1,1
			c16.4,0,29.7-13.3,29.7-29.7c0-0.5-0.4-1-0.9-1C-111,117.8-111,117.8-111.1,117.8z"/>
	</g>
</g>
<g>
	<ellipse id="Ellipse_22_3_" class="st0" cx="81.7" cy="183.2" rx="13.3" ry="16.9"/>
	<circle id="Ellipse_22_2_" class="st0" cx="69.8" cy="171.7" r="8.7"/>
	<g>
		<g>
			<g>
				<path class="st1" d="M35.5,144.3c0,1.8,1.4,3.7,3.2,4.6l20.1,10.1c-0.5,2.7-0.9,5-0.9,7.3c0,21.5,17.4,38.9,38.9,38.9
					c0.5,0,1.4,0,1.8,0l4.1,8.2c0.5,1.4,1.8,2.3,3.2,2.7c0.5,0.5,0.9,0.5,1.4,0.5c0.9,0,1.8-0.5,2.7-0.9l47.1-27l5.9,10.1
					c4.6,7.8,12.8,12.3,21.5,12.3c1.8,0,3.7-0.5,5.5-0.9l9.1,13.7c5.9,9.1,16.5,14.6,27.4,14.6h40.7v5.5c0,3.2,2.3,5.5,5.5,5.5h21.9
					c3.2,0,5.5-2.3,5.5-5.5v-55.3c0-3.2-2.3-5.5-5.5-5.5h-22.4c-3.2,0-5.5,2.3-5.5,5.5v16.5h-41.1l-8.2-12.8c3.2-4.1,5-8.7,5-14.2
					c0-5-1.4-10.1-4.6-14.2l-5.5-7.3l31.5-18.3c7.3-4.6,11.9-12.3,11.9-21c0-5-1.8-9.6-4.6-13.7L222.5,62
					c-7.8-11-23.8-14.2-35.2-7.8L37.8,139.7C36,140.7,35.1,142.9,35.5,144.3z M277.8,238.5v-44.3h11.4v44.3H277.8L277.8,238.5z
					 M199.6,206l9.6-5.5L217,212c1.8,3.2,5.5,5,9.1,5h40.7v11h-40.7c-7.3,0-14.2-4.1-18.3-10.1L199.6,206z M166.3,183.6l36.6-21
					l6.4,8.7c1.8,2.3,2.7,5,2.7,7.8c0,4.6-2.7,8.7-6.4,11l-14.2,8.2c-6.4,3.7-15.5,1.4-19.2-5L166.3,183.6z M92.2,169.5l136.7-79.1
					l13.7,19.7c1.4,1.8,2.3,4.6,2.3,7.3c0,4.6-2.3,9.1-6.4,11.4l-129.4,74.5L92.2,169.5z M68.5,166.7c0-0.5,0-1.4,0-1.8l12.3,5.9
					l11.4,23.3C78.5,192.3,68,180.9,68.5,166.7z M52,144.3l140.8-80.4c2.3-0.9,5-1.8,7.8-1.8c5,0,10.1,2.7,12.8,6.9l8.7,12.3
					L84.5,160.8L52,144.3z"/>
				<circle class="st1" cx="117.8" cy="177.7" r="5.5"/>
			</g>
		</g>
	</g>
	<circle id="Ellipse_22_1_" class="st0" cx="117.8" cy="177.7" r="5.9"/>
</g>
</svg>
